<svg width="896" height="343" viewBox="0 0 896 343" fill="none" xmlns="http://www.w3.org/2000/svg">
<g filter="url(#filter0_d)">
<path d="M68.7578 48V11.0312H79.6758C82.9427 11.0312 85.8372 11.7591 88.3594 13.2148C90.8984 14.6706 92.862 16.7357 94.25 19.4102C95.638 22.0846 96.332 25.1484 96.332 28.6016V30.4551C96.332 33.959 95.6296 37.0397 94.2246 39.6973C92.8366 42.3548 90.8477 44.403 88.2578 45.8418C85.6849 47.2806 82.7311 48 79.3965 48H68.7578ZM75.1816 16.2109V42.8711H79.3711C82.7396 42.8711 85.321 41.8216 87.1152 39.7227C88.9264 37.6068 89.849 34.5768 89.8828 30.6328V28.5762C89.8828 24.5645 89.0111 21.5007 87.2676 19.3848C85.5241 17.2689 82.9935 16.2109 79.6758 16.2109H75.1816ZM118.549 48C118.278 47.4753 118.041 46.6204 117.838 45.4355C115.874 47.4837 113.471 48.5078 110.627 48.5078C107.868 48.5078 105.617 47.7207 103.873 46.1465C102.13 44.5723 101.258 42.6257 101.258 40.3066C101.258 37.3783 102.341 35.1354 104.508 33.5781C106.691 32.0039 109.806 31.2168 113.852 31.2168H117.635V29.4141C117.635 27.9922 117.237 26.8581 116.441 26.0117C115.646 25.1484 114.436 24.7168 112.811 24.7168C111.406 24.7168 110.255 25.0723 109.357 25.7832C108.46 26.4772 108.012 27.3659 108.012 28.4492H101.842C101.842 26.9427 102.341 25.5378 103.34 24.2344C104.339 22.9141 105.693 21.8815 107.402 21.1367C109.129 20.3919 111.05 20.0195 113.166 20.0195C116.382 20.0195 118.947 20.832 120.859 22.457C122.772 24.0651 123.754 26.3333 123.805 29.2617V41.6523C123.805 44.1237 124.152 46.0957 124.846 47.5684V48H118.549ZM111.77 43.5566C112.988 43.5566 114.131 43.2604 115.197 42.668C116.281 42.0755 117.093 41.2799 117.635 40.2812V35.1016H114.309C112.023 35.1016 110.305 35.4993 109.154 36.2949C108.003 37.0905 107.428 38.2161 107.428 39.6719C107.428 40.8568 107.817 41.8047 108.596 42.5156C109.391 43.2096 110.449 43.5566 111.77 43.5566ZM135.992 20.5273L136.17 23.7012C138.201 21.2467 140.867 20.0195 144.168 20.0195C149.889 20.0195 152.801 23.2949 152.902 29.8457V48H146.732V30.2012C146.732 28.4577 146.352 27.1712 145.59 26.3418C144.845 25.4954 143.618 25.0723 141.908 25.0723C139.42 25.0723 137.566 26.1979 136.348 28.4492V48H130.178V20.5273H135.992ZM165.775 48H159.605V20.5273H165.775V48ZM159.225 13.3926C159.225 12.4447 159.521 11.6576 160.113 11.0312C160.723 10.4049 161.586 10.0918 162.703 10.0918C163.82 10.0918 164.684 10.4049 165.293 11.0312C165.902 11.6576 166.207 12.4447 166.207 13.3926C166.207 14.3236 165.902 15.1022 165.293 15.7285C164.684 16.3379 163.82 16.6426 162.703 16.6426C161.586 16.6426 160.723 16.3379 160.113 15.7285C159.521 15.1022 159.225 14.3236 159.225 13.3926ZM179.08 48H172.91V9H179.08V48ZM184.666 34.0098C184.666 31.3184 185.199 28.8978 186.266 26.748C187.332 24.5814 188.83 22.9225 190.76 21.7715C192.689 20.6035 194.907 20.0195 197.412 20.0195C201.119 20.0195 204.124 21.2129 206.426 23.5996C208.745 25.9863 209.997 29.1517 210.184 33.0957L210.209 34.543C210.209 37.2513 209.684 39.6719 208.635 41.8047C207.602 43.9375 206.113 45.5879 204.166 46.7559C202.236 47.9238 200.002 48.5078 197.463 48.5078C193.587 48.5078 190.48 47.2214 188.145 44.6484C185.826 42.0586 184.666 38.6139 184.666 34.3145V34.0098ZM190.836 34.543C190.836 37.3698 191.42 39.5872 192.588 41.1953C193.756 42.7865 195.381 43.582 197.463 43.582C199.545 43.582 201.161 42.7695 202.312 41.1445C203.48 39.5195 204.064 37.1413 204.064 34.0098C204.064 31.2337 203.464 29.0332 202.262 27.4082C201.077 25.7832 199.46 24.9707 197.412 24.9707C195.398 24.9707 193.798 25.7747 192.613 27.3828C191.428 28.974 190.836 31.3607 190.836 34.543ZM235.396 34.2637V48H228.973V11.0312H243.115C247.245 11.0312 250.521 12.1061 252.941 14.2559C255.379 16.4056 256.598 19.2493 256.598 22.7871C256.598 26.4095 255.404 29.2279 253.018 31.2422C250.648 33.2565 247.322 34.2637 243.039 34.2637H235.396ZM235.396 29.1094H243.115C245.4 29.1094 247.144 28.5762 248.346 27.5098C249.548 26.4264 250.148 24.8691 250.148 22.8379C250.148 20.8405 249.539 19.2493 248.32 18.0645C247.102 16.8626 245.426 16.2448 243.293 16.2109H235.396V29.1094ZM273.381 48.5078C269.471 48.5078 266.297 47.2806 263.859 44.8262C261.439 42.3548 260.229 39.071 260.229 34.9746V34.2129C260.229 31.4707 260.753 29.0247 261.803 26.875C262.869 24.7083 264.359 23.0241 266.271 21.8223C268.184 20.6204 270.317 20.0195 272.67 20.0195C276.411 20.0195 279.297 21.2129 281.328 23.5996C283.376 25.9863 284.4 29.3633 284.4 33.7305V36.2188H266.449C266.635 38.487 267.389 40.2812 268.709 41.6016C270.046 42.9219 271.722 43.582 273.736 43.582C276.563 43.582 278.865 42.4395 280.643 40.1543L283.969 43.3281C282.868 44.9701 281.396 46.248 279.551 47.1621C277.723 48.0592 275.666 48.5078 273.381 48.5078ZM272.645 24.9707C270.952 24.9707 269.581 25.5632 268.531 26.748C267.499 27.9329 266.839 29.5833 266.551 31.6992H278.307V31.2422C278.171 29.1771 277.621 27.6198 276.656 26.5703C275.691 25.5039 274.354 24.9707 272.645 24.9707ZM303.596 26.1641C302.783 26.0286 301.945 25.9609 301.082 25.9609C298.255 25.9609 296.351 27.0443 295.369 29.2109V48H289.199V20.5273H295.09L295.242 23.5996C296.732 21.2129 298.797 20.0195 301.438 20.0195C302.318 20.0195 303.046 20.138 303.621 20.375L303.596 26.1641ZM319.084 48.5078C315.174 48.5078 312 47.2806 309.562 44.8262C307.142 42.3548 305.932 39.071 305.932 34.9746V34.2129C305.932 31.4707 306.456 29.0247 307.506 26.875C308.572 24.7083 310.062 23.0241 311.975 21.8223C313.887 20.6204 316.02 20.0195 318.373 20.0195C322.114 20.0195 325 21.2129 327.031 23.5996C329.079 25.9863 330.104 29.3633 330.104 33.7305V36.2188H312.152C312.339 38.487 313.092 40.2812 314.412 41.6016C315.749 42.9219 317.425 43.582 319.439 43.582C322.266 43.582 324.568 42.4395 326.346 40.1543L329.672 43.3281C328.572 44.9701 327.099 46.248 325.254 47.1621C323.426 48.0592 321.369 48.5078 319.084 48.5078ZM318.348 24.9707C316.655 24.9707 315.284 25.5632 314.234 26.748C313.202 27.9329 312.542 29.5833 312.254 31.6992H324.01V31.2422C323.874 29.1771 323.324 27.6198 322.359 26.5703C321.395 25.5039 320.057 24.9707 318.348 24.9707ZM341.479 48H335.309V20.5273H341.479V48ZM334.928 13.3926C334.928 12.4447 335.224 11.6576 335.816 11.0312C336.426 10.4049 337.289 10.0918 338.406 10.0918C339.523 10.0918 340.387 10.4049 340.996 11.0312C341.605 11.6576 341.91 12.4447 341.91 13.3926C341.91 14.3236 341.605 15.1022 340.996 15.7285C340.387 16.3379 339.523 16.6426 338.406 16.6426C337.289 16.6426 336.426 16.3379 335.816 15.7285C335.224 15.1022 334.928 14.3236 334.928 13.3926ZM362.604 26.1641C361.791 26.0286 360.953 25.9609 360.09 25.9609C357.263 25.9609 355.359 27.0443 354.377 29.2109V48H348.207V20.5273H354.098L354.25 23.5996C355.74 21.2129 357.805 20.0195 360.445 20.0195C361.326 20.0195 362.053 20.138 362.629 20.375L362.604 26.1641ZM382.154 48C381.883 47.4753 381.646 46.6204 381.443 45.4355C379.48 47.4837 377.076 48.5078 374.232 48.5078C371.473 48.5078 369.222 47.7207 367.479 46.1465C365.735 44.5723 364.863 42.6257 364.863 40.3066C364.863 37.3783 365.947 35.1354 368.113 33.5781C370.297 32.0039 373.411 31.2168 377.457 31.2168H381.24V29.4141C381.24 27.9922 380.842 26.8581 380.047 26.0117C379.251 25.1484 378.041 24.7168 376.416 24.7168C375.011 24.7168 373.86 25.0723 372.963 25.7832C372.066 26.4772 371.617 27.3659 371.617 28.4492H365.447C365.447 26.9427 365.947 25.5378 366.945 24.2344C367.944 22.9141 369.298 21.8815 371.008 21.1367C372.734 20.3919 374.656 20.0195 376.771 20.0195C379.988 20.0195 382.552 20.832 384.465 22.457C386.378 24.0651 387.359 26.3333 387.41 29.2617V41.6523C387.41 44.1237 387.757 46.0957 388.451 47.5684V48H382.154ZM375.375 43.5566C376.594 43.5566 377.736 43.2604 378.803 42.668C379.886 42.0755 380.699 41.2799 381.24 40.2812V35.1016H377.914C375.629 35.1016 373.911 35.4993 372.76 36.2949C371.609 37.0905 371.033 38.2161 371.033 39.6719C371.033 40.8568 371.423 41.8047 372.201 42.5156C372.997 43.2096 374.055 43.5566 375.375 43.5566ZM89.6797 92.6738H74.166V109H69.291V72.0312H92.1934V76.043H74.166V88.6875H89.6797V92.6738ZM109.916 85.7422C109.205 85.6237 108.435 85.5645 107.605 85.5645C104.525 85.5645 102.434 86.8763 101.334 89.5V109H96.6367V81.5273H101.207L101.283 84.7012C102.824 82.2467 105.007 81.0195 107.834 81.0195C108.748 81.0195 109.442 81.138 109.916 81.375V85.7422ZM112.506 95.0098C112.506 92.3184 113.031 89.8978 114.08 87.748C115.146 85.5983 116.619 83.9395 118.498 82.7715C120.394 81.6035 122.552 81.0195 124.973 81.0195C128.714 81.0195 131.735 82.3145 134.037 84.9043C136.356 87.4941 137.516 90.9388 137.516 95.2383V95.5684C137.516 98.2428 136.999 100.646 135.967 102.779C134.951 104.895 133.487 106.546 131.574 107.73C129.678 108.915 127.495 109.508 125.023 109.508C121.299 109.508 118.278 108.213 115.959 105.623C113.657 103.033 112.506 99.6055 112.506 95.3398V95.0098ZM117.229 95.5684C117.229 98.6152 117.931 101.061 119.336 102.906C120.758 104.751 122.654 105.674 125.023 105.674C127.41 105.674 129.306 104.743 130.711 102.881C132.116 101.002 132.818 98.3783 132.818 95.0098C132.818 91.9967 132.099 89.5592 130.66 87.6973C129.238 85.8184 127.342 84.8789 124.973 84.8789C122.654 84.8789 120.783 85.8014 119.361 87.6465C117.939 89.4915 117.229 92.1322 117.229 95.5684ZM147.85 81.5273L148.002 84.9805C150.101 82.3398 152.843 81.0195 156.229 81.0195C162.035 81.0195 164.963 84.2949 165.014 90.8457V109H160.316V90.8203C160.299 88.8398 159.842 87.3757 158.945 86.4277C158.065 85.4798 156.686 85.0059 154.807 85.0059C153.283 85.0059 151.946 85.4121 150.795 86.2246C149.644 87.0371 148.747 88.1035 148.104 89.4238V109H143.406V81.5273H147.85ZM178.471 74.875V81.5273H183.6V85.1582H178.471V102.195C178.471 103.296 178.699 104.125 179.156 104.684C179.613 105.225 180.392 105.496 181.492 105.496C182.034 105.496 182.779 105.395 183.727 105.191V109C182.491 109.339 181.289 109.508 180.121 109.508C178.022 109.508 176.439 108.873 175.373 107.604C174.307 106.334 173.773 104.531 173.773 102.195V85.1582H168.771V81.5273H173.773V74.875H178.471ZM213.408 109.508C209.684 109.508 206.654 108.289 204.318 105.852C201.982 103.397 200.814 100.122 200.814 96.0254V95.1621C200.814 92.4368 201.331 90.0078 202.363 87.875C203.413 85.7253 204.868 84.0495 206.73 82.8477C208.609 81.6289 210.641 81.0195 212.824 81.0195C216.396 81.0195 219.172 82.196 221.152 84.5488C223.133 86.9017 224.123 90.2702 224.123 94.6543V96.6094H205.512C205.579 99.3177 206.367 101.51 207.873 103.186C209.396 104.844 211.326 105.674 213.662 105.674C215.321 105.674 216.726 105.335 217.877 104.658C219.028 103.981 220.035 103.084 220.898 101.967L223.768 104.201C221.465 107.739 218.012 109.508 213.408 109.508ZM212.824 84.8789C210.928 84.8789 209.337 85.5729 208.051 86.9609C206.764 88.332 205.969 90.2617 205.664 92.75H219.426V92.3945C219.29 90.0078 218.647 88.1628 217.496 86.8594C216.345 85.5391 214.788 84.8789 212.824 84.8789ZM234.025 81.5273L234.178 84.9805C236.277 82.3398 239.019 81.0195 242.404 81.0195C248.21 81.0195 251.139 84.2949 251.189 90.8457V109H246.492V90.8203C246.475 88.8398 246.018 87.3757 245.121 86.4277C244.241 85.4798 242.861 85.0059 240.982 85.0059C239.459 85.0059 238.122 85.4121 236.971 86.2246C235.82 87.0371 234.923 88.1035 234.279 89.4238V109H229.582V81.5273H234.025ZM257.131 95.0352C257.131 90.8203 258.13 87.4349 260.127 84.8789C262.124 82.306 264.74 81.0195 267.973 81.0195C271.189 81.0195 273.736 82.1198 275.615 84.3203V70H280.312V109H275.996L275.768 106.055C273.889 108.357 271.273 109.508 267.922 109.508C264.74 109.508 262.141 108.204 260.127 105.598C258.13 102.991 257.131 99.5885 257.131 95.3906V95.0352ZM261.828 95.5684C261.828 98.6829 262.471 101.12 263.758 102.881C265.044 104.641 266.822 105.521 269.09 105.521C272.069 105.521 274.244 104.184 275.615 101.51V88.8906C274.21 86.3008 272.052 85.0059 269.141 85.0059C266.839 85.0059 265.044 85.8945 263.758 87.6719C262.471 89.4492 261.828 92.0814 261.828 95.5684ZM299.381 95.0352C299.381 90.8203 300.38 87.4349 302.377 84.8789C304.374 82.306 306.99 81.0195 310.223 81.0195C313.439 81.0195 315.986 82.1198 317.865 84.3203V70H322.562V109H318.246L318.018 106.055C316.139 108.357 313.523 109.508 310.172 109.508C306.99 109.508 304.391 108.204 302.377 105.598C300.38 102.991 299.381 99.5885 299.381 95.3906V95.0352ZM304.078 95.5684C304.078 98.6829 304.721 101.12 306.008 102.881C307.294 104.641 309.072 105.521 311.34 105.521C314.319 105.521 316.494 104.184 317.865 101.51V88.8906C316.46 86.3008 314.302 85.0059 311.391 85.0059C309.089 85.0059 307.294 85.8945 306.008 87.6719C304.721 89.4492 304.078 92.0814 304.078 95.5684ZM341.275 109.508C337.551 109.508 334.521 108.289 332.186 105.852C329.85 103.397 328.682 100.122 328.682 96.0254V95.1621C328.682 92.4368 329.198 90.0078 330.23 87.875C331.28 85.7253 332.736 84.0495 334.598 82.8477C336.477 81.6289 338.508 81.0195 340.691 81.0195C344.263 81.0195 347.039 82.196 349.02 84.5488C351 86.9017 351.99 90.2702 351.99 94.6543V96.6094H333.379C333.447 99.3177 334.234 101.51 335.74 103.186C337.264 104.844 339.193 105.674 341.529 105.674C343.188 105.674 344.593 105.335 345.744 104.658C346.895 103.981 347.902 103.084 348.766 101.967L351.635 104.201C349.333 107.739 345.88 109.508 341.275 109.508ZM340.691 84.8789C338.796 84.8789 337.204 85.5729 335.918 86.9609C334.632 88.332 333.836 90.2617 333.531 92.75H347.293V92.3945C347.158 90.0078 346.514 88.1628 345.363 86.8594C344.212 85.5391 342.655 84.8789 340.691 84.8789ZM366.158 102.627L372.963 81.5273H377.762L367.91 109H364.33L354.377 81.5273H359.176L366.158 102.627ZM393.326 109.508C389.602 109.508 386.572 108.289 384.236 105.852C381.9 103.397 380.732 100.122 380.732 96.0254V95.1621C380.732 92.4368 381.249 90.0078 382.281 87.875C383.331 85.7253 384.786 84.0495 386.648 82.8477C388.527 81.6289 390.559 81.0195 392.742 81.0195C396.314 81.0195 399.09 82.196 401.07 84.5488C403.051 86.9017 404.041 90.2702 404.041 94.6543V96.6094H385.43C385.497 99.3177 386.285 101.51 387.791 103.186C389.314 104.844 391.244 105.674 393.58 105.674C395.239 105.674 396.644 105.335 397.795 104.658C398.946 103.981 399.953 103.084 400.816 101.967L403.686 104.201C401.383 107.739 397.93 109.508 393.326 109.508ZM392.742 84.8789C390.846 84.8789 389.255 85.5729 387.969 86.9609C386.682 88.332 385.887 90.2617 385.582 92.75H399.344V92.3945C399.208 90.0078 398.565 88.1628 397.414 86.8594C396.263 85.5391 394.706 84.8789 392.742 84.8789ZM414.604 109H409.906V70H414.604V109ZM420.9 95.0098C420.9 92.3184 421.425 89.8978 422.475 87.748C423.541 85.5983 425.014 83.9395 426.893 82.7715C428.788 81.6035 430.947 81.0195 433.367 81.0195C437.108 81.0195 440.13 82.3145 442.432 84.9043C444.751 87.4941 445.91 90.9388 445.91 95.2383V95.5684C445.91 98.2428 445.394 100.646 444.361 102.779C443.346 104.895 441.882 106.546 439.969 107.73C438.073 108.915 435.889 109.508 433.418 109.508C429.694 109.508 426.673 108.213 424.354 105.623C422.051 103.033 420.9 99.6055 420.9 95.3398V95.0098ZM425.623 95.5684C425.623 98.6152 426.326 101.061 427.73 102.906C429.152 104.751 431.048 105.674 433.418 105.674C435.805 105.674 437.701 104.743 439.105 102.881C440.51 101.002 441.213 98.3783 441.213 95.0098C441.213 91.9967 440.493 89.5592 439.055 87.6973C437.633 85.8184 435.737 84.8789 433.367 84.8789C431.048 84.8789 429.178 85.8014 427.756 87.6465C426.334 89.4915 425.623 92.1322 425.623 95.5684ZM475.008 95.5684C475.008 99.7493 474.051 103.118 472.139 105.674C470.226 108.23 467.636 109.508 464.369 109.508C461.035 109.508 458.411 108.45 456.498 106.334V119.562H451.801V81.5273H456.092L456.32 84.5742C458.233 82.2044 460.891 81.0195 464.293 81.0195C467.594 81.0195 470.201 82.2637 472.113 84.752C474.043 87.2402 475.008 90.7018 475.008 95.1367V95.5684ZM470.311 95.0352C470.311 91.9375 469.65 89.4915 468.33 87.6973C467.01 85.903 465.199 85.0059 462.896 85.0059C460.053 85.0059 457.92 86.2669 456.498 88.7891V101.916C457.903 104.421 460.053 105.674 462.947 105.674C465.199 105.674 466.984 104.785 468.305 103.008C469.642 101.214 470.311 98.556 470.311 95.0352ZM492.4 109.508C488.676 109.508 485.646 108.289 483.311 105.852C480.975 103.397 479.807 100.122 479.807 96.0254V95.1621C479.807 92.4368 480.323 90.0078 481.355 87.875C482.405 85.7253 483.861 84.0495 485.723 82.8477C487.602 81.6289 489.633 81.0195 491.816 81.0195C495.388 81.0195 498.164 82.196 500.145 84.5488C502.125 86.9017 503.115 90.2702 503.115 94.6543V96.6094H484.504C484.572 99.3177 485.359 101.51 486.865 103.186C488.389 104.844 490.318 105.674 492.654 105.674C494.313 105.674 495.718 105.335 496.869 104.658C498.02 103.981 499.027 103.084 499.891 101.967L502.76 104.201C500.458 107.739 497.005 109.508 492.4 109.508ZM491.816 84.8789C489.921 84.8789 488.329 85.5729 487.043 86.9609C485.757 88.332 484.961 90.2617 484.656 92.75H498.418V92.3945C498.283 90.0078 497.639 88.1628 496.488 86.8594C495.337 85.5391 493.78 84.8789 491.816 84.8789ZM521.854 85.7422C521.143 85.6237 520.372 85.5645 519.543 85.5645C516.462 85.5645 514.372 86.8763 513.271 89.5V109H508.574V81.5273H513.145L513.221 84.7012C514.761 82.2467 516.945 81.0195 519.771 81.0195C520.686 81.0195 521.38 81.138 521.854 81.375V85.7422Z" fill="black"/>
</g>
<g clip-path="url(#clip0)" filter="url(#filter1_d)">
<path d="M630.953 60.9091C634.013 60.9091 636.493 59.2599 636.493 57.2255C636.493 55.1911 634.013 53.5418 630.953 53.5418C627.893 53.5418 625.413 55.1911 625.413 57.2255C625.413 59.2599 627.893 60.9091 630.953 60.9091Z" fill="#FFB8B8"/>
<path d="M612.234 101.368L613.637 102.953L623.496 100.109L621.426 97.7704L612.234 101.368Z" fill="#FFB8B8"/>
<path d="M612.655 100.659L615.417 103.78L615.417 103.78C615.648 104.041 615.8 104.33 615.863 104.63C615.926 104.93 615.9 105.236 615.786 105.529C615.672 105.822 615.472 106.098 615.197 106.34C614.923 106.582 614.579 106.786 614.187 106.939L614.089 106.977L609.567 101.868L612.655 100.659Z" fill="#2F2E41"/>
<path d="M628.487 107.077L631.252 107.076L632.568 99.9842L628.486 99.9844L628.487 107.077Z" fill="#FFB8B8"/>
<path d="M627.782 106.476L633.227 106.476H633.227C633.683 106.476 634.134 106.536 634.556 106.652C634.977 106.768 635.359 106.938 635.681 107.152C636.004 107.366 636.259 107.621 636.434 107.901C636.608 108.181 636.698 108.481 636.698 108.784V108.859L627.782 108.859L627.782 106.476Z" fill="#2F2E41"/>
<path d="M617.37 102.78C617.211 102.78 617.054 102.755 616.912 102.707C616.77 102.659 616.647 102.59 616.552 102.505L613.886 100.096C613.804 100.023 613.746 99.9391 613.715 99.8503C613.683 99.7614 613.679 99.6693 613.703 99.5795C613.727 99.4896 613.778 99.4039 613.853 99.3274C613.928 99.251 614.025 99.1855 614.139 99.1348L626.006 93.8643L618.846 81.3449L634.158 82.1852L634.674 92.9437C634.722 93.9235 634.369 94.8935 633.652 95.7501C632.935 96.6067 631.882 97.3175 630.604 97.8066L617.877 102.689C617.723 102.748 617.548 102.78 617.37 102.78V102.78Z" fill="#2F2E41"/>
<path d="M628.57 105.637C628.308 105.636 628.056 105.568 627.867 105.447C627.678 105.326 627.567 105.16 627.558 104.986L626.997 94.505L633.946 94.2616L633.392 104.818C633.384 104.985 633.283 105.144 633.107 105.264C632.932 105.384 632.696 105.457 632.445 105.468L628.639 105.635C628.616 105.636 628.593 105.637 628.57 105.637Z" fill="#2F2E41"/>
<path d="M635.93 84.2664C634.162 84.2664 627.987 82.9442 625.844 82.4729C625.523 82.6435 623.761 83.5195 621.704 83.3594C620.436 83.2604 619.318 82.7828 618.384 81.9397C616.321 80.0779 618.869 72.0934 621.37 65.7231C621.872 64.4355 623.104 63.3272 624.809 62.6314C626.514 61.9355 628.558 61.7062 630.511 61.9917V61.9917C631.927 62.1995 633.228 62.6658 634.268 63.3382C635.307 64.0106 636.044 64.8623 636.396 65.7978C636.866 67.0723 636.461 68.5715 636.166 69.6664C636.027 70.181 635.917 70.5876 635.954 70.7874C636.099 71.5596 636.906 83.6693 636.387 84.1865C636.332 84.2416 636.172 84.2664 635.93 84.2664Z" fill="#6C63FF"/>
<path d="M629.463 84.2879C629.747 84.1472 629.981 83.9669 630.149 83.7595C630.317 83.5521 630.415 83.3228 630.435 83.0876C630.455 82.8524 630.398 82.6172 630.266 82.3984C630.135 82.1797 629.933 81.9827 629.675 81.8214L629.785 67.1469L624.587 67.7224L626.114 81.966C625.735 82.2723 625.538 82.6604 625.561 83.0567C625.584 83.4529 625.824 83.8299 626.237 84.1161C626.65 84.4023 627.206 84.5779 627.801 84.6095C628.395 84.6412 628.987 84.5268 629.463 84.2879V84.2879Z" fill="#FFB8B8"/>
<path d="M630.665 76.571H625.066C624.799 76.5704 624.543 76.5 624.353 76.3749C624.163 76.2497 624.055 76.08 624.051 75.9022L623.914 65.8098C623.909 65.4609 624.008 65.1147 624.206 64.7914C624.404 64.4682 624.696 64.1741 625.066 63.9264C625.435 63.6787 625.875 63.4821 626.36 63.3481C626.844 63.2142 627.364 63.1454 627.889 63.1458C628.414 63.1462 628.933 63.2159 629.417 63.3506C629.902 63.4854 630.341 63.6827 630.709 63.931C631.078 64.1793 631.369 64.4738 631.566 64.7974C631.762 65.121 631.86 65.4673 631.854 65.8163L631.68 75.9038C631.676 76.0813 631.567 76.2506 631.377 76.3753C631.188 76.5001 630.932 76.5704 630.665 76.571V76.571Z" fill="#6C63FF"/>
<path d="M629.542 60.8937C627.006 60.8968 624.613 59.5637 624.174 57.9027C624.016 57.2501 624.087 56.5823 624.381 55.9509C624.7 55.2322 625.247 54.5673 625.985 54.001C626.723 53.4347 627.635 52.9803 628.66 52.6683C629.685 52.3562 630.798 52.1939 631.925 52.1922C633.052 52.1905 634.166 52.3495 635.193 52.6584C635.871 52.8626 636.54 53.1558 636.85 53.6059C637.161 54.056 636.967 54.6851 636.287 54.8876C635.843 55.0199 635.286 54.9549 634.891 55.1449C634.326 55.4178 634.471 55.9985 634.724 56.4319C634.977 56.8653 635.262 57.3898 634.839 57.7596C634.444 58.1041 633.655 58.0934 633.033 57.9637C632.412 57.8341 631.798 57.6169 631.15 57.6611C630.205 57.7255 629.526 58.3506 629.4 58.9768C629.275 59.603 629.571 60.229 629.863 60.8301L629.542 60.8937Z" fill="#2F2E41"/>
<path d="M655.418 109H597.226C597.166 109 597.108 108.984 597.066 108.956C597.024 108.928 597 108.89 597 108.85C597 108.81 597.024 108.772 597.066 108.744C597.108 108.716 597.166 108.7 597.226 108.7H655.418C655.477 108.7 655.535 108.716 655.577 108.744C655.619 108.772 655.643 108.81 655.643 108.85C655.643 108.89 655.619 108.928 655.577 108.956C655.535 108.984 655.477 109 655.418 109Z" fill="#CCCCCC"/>
<path d="M802.278 84.1729H657.737C656.75 84.1722 655.804 83.9112 655.107 83.4473C654.409 82.9834 654.016 82.3544 654.015 81.6983V22.4336C654.016 21.9529 654.304 21.4921 654.815 21.1522C655.326 20.8124 656.019 20.6212 656.742 20.6206H803.226C803.962 20.6212 804.667 20.8157 805.187 21.1614C805.707 21.5072 805.999 21.976 806 22.4649V81.6983C805.999 82.3544 805.606 82.9834 804.909 83.4473C804.211 83.9112 803.265 84.1722 802.278 84.1729V84.1729Z" fill="#F2F2F2"/>
<path d="M797.605 81.0485H662.896C660.922 81.0485 659.315 80.0482 659.315 78.8186V27.2102C659.315 26.2983 660.505 25.5564 661.969 25.5564H798.489C799.976 25.5564 801.186 26.3105 801.186 27.2374V78.8186C801.186 80.0482 799.58 81.0485 797.605 81.0485Z" fill="white"/>
<path d="M805.948 22.742H653.963V21.4821C653.965 20.8238 654.359 20.1928 655.059 19.7275C655.759 19.2622 656.708 19.0005 657.698 19H802.213C803.203 19.0005 804.152 19.2622 804.852 19.7275C805.553 20.1928 805.947 20.8238 805.948 21.4821V22.742Z" fill="#3F3D56"/>
<path d="M660.751 21.5172C661.285 21.5172 661.717 21.2296 661.717 20.8748C661.717 20.52 661.285 20.2323 660.751 20.2323C660.218 20.2323 659.785 20.52 659.785 20.8748C659.785 21.2296 660.218 21.5172 660.751 21.5172Z" fill="white"/>
<path d="M664.418 21.5172C664.952 21.5172 665.385 21.2296 665.385 20.8748C665.385 20.52 664.952 20.2323 664.418 20.2323C663.885 20.2323 663.452 20.52 663.452 20.8748C663.452 21.2296 663.885 21.5172 664.418 21.5172Z" fill="white"/>
<path d="M668.086 21.5172C668.619 21.5172 669.052 21.2296 669.052 20.8748C669.052 20.52 668.619 20.2323 668.086 20.2323C667.552 20.2323 667.119 20.52 667.119 20.8748C667.119 21.2296 667.552 21.5172 668.086 21.5172Z" fill="white"/>
<path d="M727.055 36.8407H700.709C700.316 36.8407 699.939 36.7369 699.661 36.5522C699.384 36.3675 699.228 36.1171 699.228 35.8559C699.228 35.5947 699.384 35.3442 699.661 35.1595C699.939 34.9748 700.316 34.8711 700.709 34.8711H727.055C727.448 34.8711 727.824 34.9748 728.102 35.1595C728.38 35.3442 728.536 35.5947 728.536 35.8559C728.536 36.1171 728.38 36.3675 728.102 36.5522C727.824 36.7369 727.448 36.8407 727.055 36.8407V36.8407Z" fill="#CCCCCC"/>
<path d="M759.793 36.8407H733.446C733.054 36.8407 732.677 36.7369 732.399 36.5522C732.121 36.3675 731.965 36.1171 731.965 35.8559C731.965 35.5947 732.121 35.3442 732.399 35.1595C732.677 34.9748 733.054 34.8711 733.446 34.8711H759.793C760.185 34.8711 760.562 34.9748 760.84 35.1595C761.118 35.3442 761.274 35.5947 761.274 35.8559C761.274 36.1171 761.118 36.3675 760.84 36.5522C760.562 36.7369 760.185 36.8407 759.793 36.8407V36.8407Z" fill="#CCCCCC"/>
<path d="M759.793 40.5724H713.96C713.567 40.5724 713.19 40.4687 712.912 40.284C712.635 40.0993 712.479 39.8488 712.479 39.5877C712.479 39.3265 712.635 39.076 712.912 38.8913C713.19 38.7066 713.567 38.6029 713.96 38.6029H759.793C760.185 38.6029 760.562 38.7066 760.84 38.8913C761.118 39.076 761.274 39.3265 761.274 39.5877C761.274 39.8488 761.118 40.0993 760.84 40.284C760.562 40.4687 760.185 40.5724 759.793 40.5724Z" fill="#CCCCCC"/>
<path d="M727.055 33.057H700.709C700.316 33.0567 699.94 32.9528 699.663 32.7681C699.385 32.5835 699.229 32.3332 699.229 32.0722C699.229 31.8112 699.385 31.5609 699.663 31.3763C699.94 31.1916 700.316 31.0878 700.709 31.0874H727.055C727.249 31.0873 727.442 31.1126 727.622 31.162C727.802 31.2115 727.965 31.284 728.103 31.3754C728.241 31.4669 728.35 31.5755 728.425 31.6951C728.499 31.8146 728.538 31.9428 728.538 32.0722C728.538 32.2016 728.499 32.3298 728.425 32.4494C728.35 32.5689 728.241 32.6775 728.103 32.769C727.965 32.8605 727.802 32.933 727.622 32.9824C727.442 33.0318 727.249 33.0572 727.055 33.057V33.057Z" fill="#CCCCCC"/>
<path d="M741.553 33.1088H734.07C733.677 33.1088 733.301 33.0051 733.023 32.8204C732.745 32.6357 732.589 32.3852 732.589 32.124C732.589 31.8629 732.745 31.6124 733.023 31.4277C733.301 31.243 733.677 31.1393 734.07 31.1393H741.553C741.946 31.1393 742.322 31.243 742.6 31.4277C742.878 31.6124 743.034 31.8629 743.034 32.124C743.034 32.3852 742.878 32.6357 742.6 32.8204C742.322 33.0051 741.946 33.1088 741.553 33.1088Z" fill="#CCCCCC"/>
<path d="M708.192 40.5724H700.709C700.316 40.5721 699.94 40.4682 699.663 40.2836C699.385 40.0989 699.229 39.8486 699.229 39.5877C699.229 39.3267 699.385 39.0764 699.663 38.8917C699.94 38.7071 700.316 38.6032 700.709 38.6029H708.192C708.386 38.6027 708.579 38.6281 708.759 38.6775C708.939 38.7269 709.102 38.7994 709.24 38.8909C709.378 38.9823 709.487 39.091 709.561 39.2105C709.636 39.3301 709.674 39.4582 709.674 39.5877C709.674 39.7171 709.636 39.8452 709.561 39.9648C709.487 40.0843 709.378 40.193 709.24 40.2844C709.102 40.3759 708.939 40.4484 708.759 40.4978C708.579 40.5472 708.386 40.5726 708.192 40.5724Z" fill="#CCCCCC"/>
<path d="M727.055 71.7857H700.709C700.316 71.7857 699.939 71.6819 699.661 71.4973C699.384 71.3126 699.228 71.0621 699.228 70.8009C699.228 70.5397 699.384 70.2893 699.661 70.1046C699.939 69.9199 700.316 69.8161 700.709 69.8161H727.055C727.249 69.8161 727.442 69.8416 727.622 69.8911C727.801 69.9406 727.965 70.0131 728.102 70.1046C728.24 70.196 728.349 70.3046 728.423 70.4241C728.497 70.5435 728.536 70.6716 728.536 70.8009C728.536 70.9302 728.497 71.0583 728.423 71.1778C728.349 71.2973 728.24 71.4058 728.102 71.4973C727.965 71.5887 727.801 71.6612 727.622 71.7107C727.442 71.7602 727.249 71.7857 727.055 71.7857V71.7857Z" fill="#CCCCCC"/>
<path d="M759.793 71.7857H733.446C733.054 71.7857 732.677 71.6819 732.399 71.4973C732.121 71.3126 731.965 71.0621 731.965 70.8009C731.965 70.5397 732.121 70.2893 732.399 70.1046C732.677 69.9199 733.054 69.8161 733.446 69.8161H759.793C759.987 69.8161 760.18 69.8416 760.359 69.8911C760.539 69.9406 760.702 70.0131 760.84 70.1046C760.977 70.196 761.086 70.3046 761.161 70.4241C761.235 70.5435 761.274 70.6716 761.274 70.8009C761.274 70.9302 761.235 71.0583 761.161 71.1778C761.086 71.2973 760.977 71.4058 760.84 71.4973C760.702 71.5887 760.539 71.6612 760.359 71.7107C760.18 71.7602 759.987 71.7857 759.793 71.7857V71.7857Z" fill="#CCCCCC"/>
<path d="M759.793 75.5175H713.96C713.567 75.5175 713.19 75.4138 712.912 75.2291C712.635 75.0444 712.479 74.7939 712.479 74.5327C712.479 74.2716 712.635 74.0211 712.912 73.8364C713.19 73.6517 713.567 73.548 713.96 73.548H759.793C759.987 73.5478 760.18 73.5732 760.36 73.6226C760.54 73.672 760.703 73.7445 760.841 73.836C760.979 73.9274 761.088 74.0361 761.163 74.1556C761.237 74.2752 761.275 74.4033 761.275 74.5327C761.275 74.6622 761.237 74.7903 761.163 74.9099C761.088 75.0294 760.979 75.1381 760.841 75.2295C760.703 75.321 760.54 75.3935 760.36 75.4429C760.18 75.4923 759.987 75.5177 759.793 75.5175Z" fill="#CCCCCC"/>
<path d="M727.055 68.0021H700.709C700.316 68.0021 699.939 67.8983 699.661 67.7136C699.384 67.529 699.228 67.2785 699.228 67.0173C699.228 66.7561 699.384 66.5056 699.661 66.3209C699.939 66.1363 700.316 66.0325 700.709 66.0325H727.055C727.448 66.0325 727.824 66.1363 728.102 66.3209C728.38 66.5056 728.536 66.7561 728.536 67.0173C728.536 67.2785 728.38 67.529 728.102 67.7136C727.824 67.8983 727.448 68.0021 727.055 68.0021Z" fill="#CCCCCC"/>
<path d="M741.553 68.0539H734.07C733.677 68.0539 733.301 67.9502 733.023 67.7655C732.745 67.5808 732.589 67.3303 732.589 67.0691C732.589 66.808 732.745 66.5575 733.023 66.3728C733.301 66.1881 733.677 66.0844 734.07 66.0844H741.553C741.946 66.0844 742.322 66.1881 742.6 66.3728C742.878 66.5575 743.034 66.808 743.034 67.0691C743.034 67.3303 742.878 67.5808 742.6 67.7655C742.322 67.9502 741.946 68.0539 741.553 68.0539V68.0539Z" fill="#CCCCCC"/>
<path d="M708.192 75.5175H700.709C700.316 75.5175 699.939 75.4138 699.661 75.2291C699.384 75.0444 699.228 74.7939 699.228 74.5327C699.228 74.2716 699.384 74.0211 699.661 73.8364C699.939 73.6517 700.316 73.548 700.709 73.548H708.192C708.386 73.5478 708.579 73.5732 708.759 73.6226C708.939 73.672 709.102 73.7445 709.24 73.836C709.378 73.9274 709.487 74.0361 709.562 74.1556C709.636 74.2752 709.674 74.4033 709.674 74.5327C709.674 74.6622 709.636 74.7903 709.562 74.9099C709.487 75.0294 709.378 75.1381 709.24 75.2295C709.102 75.321 708.939 75.3935 708.759 75.4429C708.579 75.4923 708.386 75.5177 708.192 75.5175Z" fill="#CCCCCC"/>
<path d="M720.174 61.2133C719.615 61.2141 719.078 61.068 718.68 60.8068L708.776 54.3038C708.582 54.1762 708.428 54.0241 708.322 53.8565C708.217 53.6888 708.163 53.5089 708.163 53.3272C708.163 53.1455 708.217 52.9656 708.322 52.798C708.428 52.6303 708.582 52.4783 708.776 52.3506L718.64 45.8739C719.051 45.6054 719.605 45.4554 720.181 45.4566C720.757 45.4578 721.309 45.6101 721.717 45.8803C722.126 46.1527 722.356 46.5218 722.356 46.9067C722.356 47.2915 722.126 47.6606 721.717 47.933L714.388 52.8068C714.16 52.959 714.031 53.1653 714.031 53.3802C714.031 53.5952 714.16 53.8015 714.388 53.9537L721.678 58.801C721.975 58.9985 722.178 59.2504 722.26 59.5247C722.343 59.7989 722.3 60.0833 722.139 60.3416C721.978 60.5999 721.706 60.8207 721.356 60.9759C721.006 61.131 720.595 61.2137 720.174 61.2133V61.2133Z" fill="#6C63FF"/>
<path d="M735.955 61.2133C735.534 61.2137 735.123 61.1311 734.773 60.9759C734.423 60.8207 734.15 60.6 733.989 60.3416C733.828 60.0833 733.786 59.799 733.868 59.5247C733.951 59.2504 734.153 58.9986 734.451 58.801L741.741 53.9537C741.969 53.8015 742.097 53.5953 742.097 53.3803C742.097 53.1653 741.969 52.9591 741.741 52.8069L734.411 47.933C734.209 47.7983 734.048 47.6382 733.938 47.4621C733.828 47.286 733.772 47.0973 733.772 46.9067C733.772 46.7161 733.829 46.5273 733.938 46.3512C734.048 46.1751 734.209 46.0151 734.411 45.8803V45.8803C734.82 45.6101 735.372 45.4578 735.948 45.4566C736.524 45.4554 737.078 45.6054 737.489 45.8739L747.352 52.3506C747.547 52.4783 747.701 52.6304 747.806 52.798C747.912 52.9656 747.966 53.1455 747.966 53.3272C747.966 53.5089 747.912 53.6888 747.806 53.8565C747.701 54.0241 747.547 54.1762 747.352 54.3038L737.449 60.8068C737.051 61.068 736.514 61.2141 735.955 61.2133Z" fill="#6C63FF"/>
</g>
<g filter="url(#filter2_d)">
<path d="M159.045 320C153.164 319.324 147.509 318.749 142.081 318.275L144.171 315.206C143.446 315.028 140.301 316.804 140.301 316.804L142.962 307.926C139.334 308.281 137.641 317.337 137.641 317.337L133.53 314.318L135.554 317.736C118.943 316.454 104.61 316.054 92.5613 316.146L94.3504 313.519C93.6248 313.342 90.4808 315.117 90.4808 315.117L93.1411 306.239C89.5134 306.594 87.8205 315.65 87.8205 315.65L83.709 312.631L85.8526 316.251C77.5994 316.427 69.3639 316.914 61.1787 317.71C62.9639 313.627 69.1982 309.702 69.1982 309.702C64.4046 310.796 61.9108 312.58 60.62 314.234C60.3589 305.845 62.1166 297.489 65.8123 289.549C65.8123 289.549 56.1384 305.529 57.5895 316.182L57.7736 318.075C49.3574 319.039 45.1343 320 45.1343 320H159.045Z" fill="#3F3D56"/>
<path d="M181.194 298.389C180.568 298.389 179.956 298.245 179.436 297.976C178.916 297.706 178.51 297.322 178.271 296.873C178.031 296.425 177.968 295.931 178.091 295.455C178.213 294.978 178.514 294.541 178.957 294.197C179.399 293.854 179.963 293.62 180.577 293.525C181.19 293.43 181.827 293.479 182.405 293.665C182.983 293.851 183.477 294.165 183.825 294.569C184.173 294.973 184.358 295.448 184.358 295.934C184.357 296.585 184.024 297.209 183.43 297.669C182.837 298.13 182.033 298.389 181.194 298.389V298.389ZM181.194 293.887C180.672 293.887 180.163 294.007 179.729 294.232C179.295 294.457 178.957 294.777 178.758 295.15C178.558 295.524 178.506 295.936 178.608 296.333C178.71 296.73 178.961 297.094 179.329 297.381C179.698 297.667 180.168 297.862 180.68 297.941C181.191 298.02 181.721 297.979 182.203 297.824C182.685 297.669 183.097 297.407 183.386 297.071C183.676 296.734 183.831 296.338 183.831 295.934C183.83 295.391 183.552 294.871 183.058 294.487C182.563 294.104 181.893 293.888 181.194 293.887V293.887Z" fill="#3F3D56"/>
<path d="M204.398 320H199.124V316.071H204.398V320ZM199.53 319.698H203.992V316.373H199.53V319.698Z" fill="#3F3D56"/>
<path d="M42.9148 320L39.8607 317.459L43.135 315.088L46.1891 317.63L42.9148 320ZM40.3475 317.472L42.9317 319.622L45.7023 317.617L43.1181 315.466L40.3475 317.472Z" fill="#3F3D56"/>
<path d="M136.896 239.907V251.706C136.895 251.815 136.837 251.92 136.735 251.997C136.633 252.074 136.494 252.117 136.35 252.118H135.961V313.586C135.961 315.287 135.064 316.919 133.468 318.121C131.872 319.324 129.707 320 127.45 320H76.4792C75.3616 320 74.255 319.834 73.2225 319.512C72.1901 319.189 71.252 318.717 70.4618 318.121C69.6717 317.526 69.045 316.819 68.6174 316.041C68.1899 315.262 67.97 314.428 67.9702 313.586V254.274H67.6889C67.5868 254.274 67.4888 254.243 67.4164 254.189C67.344 254.135 67.3031 254.061 67.3026 253.984V247.269C67.3026 247.231 67.3126 247.193 67.332 247.157C67.3514 247.122 67.3799 247.09 67.4157 247.063C67.4516 247.036 67.4942 247.015 67.5411 247C67.5879 246.985 67.6381 246.978 67.6889 246.978H67.9702V244.448H67.6865C67.5793 244.448 67.4767 244.416 67.4012 244.358C67.3256 244.301 67.2833 244.224 67.2836 244.143V237.519C67.2838 237.439 67.3264 237.361 67.4019 237.305C67.4774 237.248 67.5797 237.216 67.6865 237.215H67.9702V233.762H67.6817C67.6347 233.763 67.5882 233.756 67.5448 233.742C67.5014 233.729 67.4619 233.709 67.4287 233.684C67.3955 233.659 67.3691 233.629 67.3512 233.596C67.3332 233.563 67.324 233.528 67.3241 233.493V229.878C67.3239 229.807 67.3614 229.738 67.4285 229.687C67.4955 229.636 67.5866 229.607 67.6817 229.607H67.9702V222.288C67.9703 220.587 68.8668 218.957 70.4625 217.754C72.0582 216.552 74.2225 215.876 76.4792 215.876H127.45C129.707 215.876 131.871 216.552 133.467 217.754C135.063 218.956 135.96 220.587 135.961 222.288V239.495H136.35C136.494 239.496 136.633 239.539 136.735 239.616C136.837 239.693 136.895 239.798 136.896 239.907V239.907Z" fill="#3F3D56"/>
<path d="M104.648 219.805H96.3671C96.0325 219.805 95.7612 219.944 95.7612 220.114V220.479C95.7612 220.649 96.0325 220.788 96.3671 220.788H104.648C104.983 220.788 105.254 220.649 105.254 220.479V220.114C105.254 219.944 104.983 219.805 104.648 219.805Z" fill="#E6E8EC"/>
<path d="M107.363 220.788C107.946 220.788 108.418 220.568 108.418 220.296C108.418 220.025 107.946 219.805 107.363 219.805C106.781 219.805 106.308 220.025 106.308 220.296C106.308 220.568 106.781 220.788 107.363 220.788Z" fill="#E6E8EC"/>
<path d="M132.677 223.855V313.987C132.677 314.573 132.507 315.153 132.176 315.685C131.845 316.217 131.363 316.689 130.762 317.068C129.776 317.693 128.524 318.036 127.229 318.035H78.0052C77.1293 318.036 76.2662 317.88 75.4893 317.579C75.3067 317.51 75.13 317.432 74.9601 317.347C74.2203 316.976 73.6143 316.476 73.1954 315.89C72.7764 315.304 72.5573 314.651 72.5573 313.987V223.855C72.5572 223.323 72.6981 222.797 72.9719 222.305C73.2457 221.814 73.6469 221.368 74.1528 220.991C74.6587 220.615 75.2593 220.317 75.9203 220.114C76.5813 219.91 77.2897 219.805 78.0052 219.805H85.3725V220.508C85.3725 221.392 85.8451 222.241 86.6863 222.866C87.5276 223.491 88.6686 223.843 89.8583 223.843H114.892C116.082 223.843 117.223 223.491 118.064 222.866C118.905 222.241 119.378 221.392 119.378 220.508V219.805H127.229C127.944 219.805 128.653 219.91 129.314 220.113C129.975 220.317 130.576 220.615 131.082 220.991C131.587 221.367 131.989 221.814 132.262 222.305C132.536 222.797 132.677 223.323 132.677 223.855Z" fill="#6C63FF"/>
<path opacity="0.3" d="M132.677 301.067V313.983C132.677 314.57 132.507 315.149 132.176 315.682C131.845 316.215 131.363 316.687 130.762 317.067C129.776 317.692 128.524 318.036 127.229 318.035H78.0052C77.1293 318.036 76.2662 317.88 75.4893 317.579C75.3067 317.509 75.13 317.432 74.9601 317.346C74.2203 316.975 73.6143 316.474 73.1954 315.888C72.7764 315.301 72.5573 314.647 72.5573 313.983V301.073C80.8112 295.551 91.5171 292.497 102.616 292.496C113.714 292.495 124.421 295.548 132.677 301.067Z" fill="white"/>
<path opacity="0.3" d="M129.512 317.581C128.727 317.881 127.852 318.037 126.964 318.035H77.2097C76.3244 318.036 75.4519 317.882 74.6666 317.585C76.9191 313.647 80.7255 310.282 85.6056 307.914C90.4858 305.547 96.2211 304.284 102.088 304.283C107.955 304.283 113.69 305.546 118.571 307.912C123.452 310.279 127.259 313.643 129.512 317.581V317.581Z" fill="white"/>
<path opacity="0.3" d="M118.965 317.743C118.497 317.936 117.975 318.036 117.446 318.035H87.7847C87.257 318.036 86.7368 317.937 86.2687 317.746C87.6115 315.214 89.8807 313.051 92.79 311.529C95.6993 310.007 99.1184 309.195 102.616 309.195C106.114 309.194 109.533 310.006 112.442 311.528C115.352 313.049 117.622 315.212 118.965 317.743V317.743Z" fill="white"/>
<path d="M114.802 255.168C109.794 255.168 104.298 254.397 100.008 251.795C94.0344 248.173 86.6747 248.366 81.5528 249.166C78.1505 249.702 74.8482 250.592 71.728 251.812L71.5024 251.463C74.6607 250.226 78.0034 249.325 81.4475 248.781C86.6701 247.964 94.1806 247.768 100.301 251.48C111.766 258.433 132.296 252.188 132.502 252.124L132.677 252.493C128.827 253.602 124.845 254.386 120.795 254.831C118.809 255.05 116.807 255.163 114.802 255.168Z" fill="white"/>
<path opacity="0.3" d="M72.5573 251.3C72.5573 251.3 89.1502 248.34 100.693 252.392C112.236 256.445 132.677 252.362 132.677 252.362" fill="white"/>
<path opacity="0.3" d="M87.5037 256.15C85.4703 256.144 83.4425 256.004 81.4475 255.731C78.0034 255.265 74.6607 254.493 71.5024 253.433L71.728 253.133C74.8482 254.179 78.1505 254.942 81.5528 255.401C86.6745 256.087 94.0343 256.253 100.008 253.148C106.123 249.969 114.688 249.978 120.795 250.545C124.845 250.927 128.827 251.599 132.677 252.55L132.502 252.866C132.296 252.811 111.766 247.458 100.301 253.418C96.2873 255.504 91.6756 256.15 87.5037 256.15Z" fill="white"/>
<path opacity="0.3" d="M87.5763 255.168C79.1224 255.168 71.6151 252.535 71.5024 252.495L71.6884 252.103C71.8555 252.163 88.5522 258.015 100.027 252.117C111.701 246.116 132.468 251.472 132.677 251.527L132.535 251.933C132.329 251.879 111.765 246.576 100.276 252.481C96.3552 254.497 91.8449 255.168 87.5763 255.168Z" fill="white"/>
<path opacity="0.3" d="M72.5573 252.277C72.5573 252.277 89.1511 256.572 100.696 252.277C112.242 247.982 132.677 251.871 132.677 251.871" fill="white"/>
<path d="M136.896 263.027V268.062C136.896 268.062 137.462 273.703 140.579 276.523C140.579 276.523 145.68 281.659 146.388 280.551L145.516 276.904L142.563 274.911L141.004 268.667L140.579 263.027H136.896Z" fill="#FFB8B8"/>
<path d="M167.483 310.177V313.963L163.264 315.088V310.689L167.483 310.177Z" fill="#FFB8B8"/>
<path d="M159.107 309.195L162.209 313.848L157.866 315.088L156.935 310.539L159.107 309.195Z" fill="#FFB8B8"/>
<path d="M166.591 273.731C166.591 273.731 172.31 310.853 170.166 310.956C168.021 311.059 163.875 313.012 163.875 311.676C163.875 310.339 160.586 292.961 160.586 292.961L157.441 284.014V296.354L160.729 310.339C160.729 310.339 157.584 313.321 155.297 311.573L150.436 297.896C150.436 297.896 144.002 277.125 144.288 275.479C144.288 275.479 159.014 266.43 166.591 273.731Z" fill="#2F2E41"/>
<path d="M165.316 314.173C165.316 314.173 166.411 312.335 168.875 313.524L170.927 315.47C170.927 315.47 176.22 318.931 172.464 319.673C168.594 320.437 166.274 319.624 166.274 319.624C166.274 319.624 165.59 319.3 165.043 319.3C164.495 319.3 163.264 318.543 163.264 318.327C163.264 318.111 163.674 314.281 163.674 314.281C163.829 314.221 164.003 314.2 164.174 314.219C164.345 314.238 164.504 314.297 164.632 314.389C165.043 314.713 165.316 314.173 165.316 314.173Z" fill="#2F2E41"/>
<path d="M156.56 313.746C156.56 313.746 159.082 312.219 160.277 313.95C160.277 313.95 161.03 314.153 161.118 313.95C161.207 313.746 161.871 313.644 161.871 314.764C161.871 315.884 162.592 318.677 161.928 318.779C161.264 318.881 160.6 319.186 160.733 319.593C160.866 320 160.012 320.058 156.958 319.956C153.904 319.854 153.771 318.938 153.771 318.938C153.771 318.938 153.771 317.615 154.568 316.902C155.364 316.189 156.56 313.746 156.56 313.746Z" fill="#2F2E41"/>
<path d="M151.277 245.345C151.277 245.345 150.583 249.034 155.028 250.33C159.473 251.626 145.166 255.914 143.777 253.421C142.388 250.928 144.054 250.131 144.054 250.131C144.054 250.131 145.443 249.134 144.193 246.442L151.277 245.345Z" fill="#FFB8B8"/>
<path d="M146.915 248.292C150.119 248.292 152.716 246.093 152.716 243.381C152.716 240.668 150.119 238.469 146.915 238.469C143.712 238.469 141.114 240.668 141.114 243.381C141.114 246.093 143.712 248.292 146.915 248.292Z" fill="#FFB8B8"/>
<path d="M154.507 251.239C154.507 251.239 150.253 252.943 146.14 251.665C142.028 250.387 142.17 255.926 142.17 255.926L144.297 260.08L159.045 259.014L158.052 252.624L154.507 251.239Z" fill="#F2F2F2"/>
<path d="M151.957 248.292C152.709 248.407 153.416 248.642 154.025 248.981C154.634 249.319 155.129 249.752 155.475 250.247L162.255 251.772L163.95 253.502L161.972 266.013C161.972 266.013 165.645 268.556 165.645 269.98C165.645 271.404 170.165 276.286 167.905 275.676C165.645 275.065 161.548 272.929 161.548 272.929C161.548 272.929 151.237 273.235 147.988 275.269C144.74 277.303 143.468 276.693 143.468 276.693C143.468 276.693 140.078 266.114 139.937 264.487C139.796 262.86 135.841 253.095 135.841 253.095L142.903 250.247L144.702 248.777L149.683 254.519L154.203 250.552C154.203 250.552 151.97 249.287 151.957 248.292Z" fill="#3F3D56"/>
<path d="M166.47 261.062L167.322 264.424C167.322 264.424 171.158 274.93 170.589 278.502C170.589 278.502 171.015 286.487 168.601 285.542C166.186 284.596 167.464 278.818 167.464 278.818L164.056 268.416L162.209 262.323L166.47 261.062Z" fill="#FFB8B8"/>
<path d="M162.5 253.204L163.995 253.793C163.995 253.793 169.677 261.553 168.331 262.142C166.986 262.732 161.154 264.009 161.154 264.009L162.5 253.204Z" fill="#3F3D56"/>
<path d="M139.397 253.255L136.515 253.204L135.841 254.182L136.699 264.168L141.114 264.991L139.397 253.255Z" fill="#3F3D56"/>
<path d="M151.904 239.424L152.985 239.095C152.985 239.095 150.726 237.203 147.583 237.368L148.467 236.627C148.467 236.627 146.306 235.97 144.342 237.697C143.309 238.604 142.114 239.672 141.369 240.874H140.212L140.695 241.683L139.005 242.491L140.74 242.346C140.575 243.044 140.632 243.766 140.904 244.44L141.297 245.345C141.297 245.345 142.868 242.713 142.868 242.384V243.207C142.868 243.207 143.949 242.467 143.949 241.973L144.538 242.549L144.833 241.644L148.467 242.549L147.877 241.809L150.136 242.055L149.252 241.151C149.252 241.151 151.806 242.22 151.904 243.125C152.003 244.029 152.677 245.209 152.677 245.209L153.494 244.41C153.494 244.41 154.753 240.657 151.904 239.424Z" fill="#2F2E41"/>
<path d="M152.189 244.363C152.48 244.363 152.716 243.923 152.716 243.381C152.716 242.838 152.48 242.398 152.189 242.398C151.898 242.398 151.662 242.838 151.662 243.381C151.662 243.923 151.898 244.363 152.189 244.363Z" fill="#FFB8B8"/>
<path d="M14.3089 314.185C17.305 318.253 23.6638 320 23.6638 320C23.6638 320 25.1649 315.15 22.1688 311.081C19.1727 307.012 12.8139 305.265 12.8139 305.265C12.8139 305.265 11.3128 310.116 14.3089 314.185Z" fill="#3F3D56"/>
<path d="M16.3747 312.809C21.9085 315.166 24.0398 319.847 24.0398 319.847C24.0398 319.847 17.1989 320.707 11.6651 318.35C6.13126 315.994 4 311.312 4 311.312C4 311.312 10.8409 310.452 16.3747 312.809Z" fill="#6C63FF"/>
<path opacity="0.3" d="M72.5573 251.156C72.5573 251.156 89.1511 244.713 100.696 251.156C112.242 257.598 132.677 251.764 132.677 251.764" fill="white"/>
<path d="M102.617 317.053C104.073 317.053 105.254 316.174 105.254 315.088C105.254 314.003 104.073 313.124 102.617 313.124C101.161 313.124 99.9801 314.003 99.9801 315.088C99.9801 316.174 101.161 317.053 102.617 317.053Z" fill="white"/>
</g>
<g clip-path="url(#clip1)" filter="url(#filter3_d)">
<path d="M827.978 320C863.337 320 892 295.874 892 266.113C892 236.351 863.337 212.225 827.978 212.225C792.62 212.225 763.957 236.351 763.957 266.113C763.957 295.874 792.62 320 827.978 320Z" fill="#F2F2F2"/>
<path d="M790.593 256.583C791.049 255.912 791.285 255.151 791.276 254.378C791.276 252.385 789.81 250.769 788.001 250.769C786.192 250.769 784.726 252.385 784.726 254.378C784.717 255.151 784.953 255.912 785.409 256.583C784.961 257.257 784.726 258.017 784.726 258.789C784.726 259.561 784.961 260.32 785.409 260.994C784.961 261.668 784.726 262.428 784.726 263.2C784.726 263.972 784.961 264.731 785.409 265.405C784.961 266.079 784.726 266.839 784.726 267.611C784.726 268.383 784.961 269.142 785.409 269.816C784.953 270.487 784.717 271.249 784.726 272.022C784.726 274.015 786.192 275.631 788.001 275.631C789.81 275.631 791.276 274.015 791.276 272.022C791.285 271.249 791.049 270.487 790.593 269.816C791.041 269.142 791.276 268.383 791.276 267.611C791.276 266.839 791.041 266.079 790.593 265.405C791.041 264.731 791.276 263.972 791.276 263.2C791.276 262.428 791.041 261.668 790.593 260.994C791.041 260.32 791.276 259.561 791.276 258.789C791.276 258.017 791.041 257.257 790.593 256.583V256.583Z" fill="#3F3D56"/>
<path d="M788.001 253.576C789.81 253.576 791.276 251.96 791.276 249.967C791.276 247.974 789.81 246.358 788.001 246.358C786.192 246.358 784.726 247.974 784.726 249.967C784.726 251.96 786.192 253.576 788.001 253.576Z" fill="#3F3D56"/>
<path d="M788.001 249.165C789.81 249.165 791.276 247.549 791.276 245.556C791.276 243.563 789.81 241.947 788.001 241.947C786.192 241.947 784.726 243.563 784.726 245.556C784.726 247.549 786.192 249.165 788.001 249.165Z" fill="#3F3D56"/>
<path d="M800.262 215.37C800.71 214.891 801.117 214.386 801.482 213.859L792.876 212.669L802.184 212.727C803.076 211.092 803.564 209.321 803.615 207.522C803.667 205.723 803.281 203.934 802.483 202.264L789.996 207.717L801.512 200.591C800.433 199.022 798.982 197.656 797.249 196.58C795.515 195.503 793.537 194.738 791.438 194.333C789.338 193.928 787.162 193.891 785.044 194.225C782.927 194.559 780.914 195.256 779.131 196.273C777.347 197.29 775.832 198.605 774.679 200.137C773.526 201.668 772.76 203.383 772.429 205.175C772.097 206.966 772.208 208.796 772.753 210.55C773.299 212.304 774.268 213.945 775.599 215.37C774.902 216.116 774.302 216.924 773.81 217.778L784.982 222.664L773.07 219.299C772.233 221.38 772.027 223.603 772.468 225.769C772.91 227.934 773.986 229.972 775.599 231.699C773.779 233.647 772.647 235.987 772.332 238.451C772.017 240.915 772.532 243.404 773.818 245.633C775.105 247.862 777.11 249.742 779.606 251.057C782.102 252.372 784.986 253.069 787.931 253.069C790.875 253.069 793.76 252.372 796.255 251.057C798.751 249.742 800.757 247.862 802.043 245.633C803.329 243.404 803.845 240.915 803.53 238.451C803.215 235.987 802.082 233.647 800.262 231.699C802.437 229.372 803.62 226.496 803.62 223.535C803.62 220.573 802.437 217.698 800.262 215.37L800.262 215.37Z" fill="#6C63FF"/>
<path opacity="0.1" d="M772.242 223.535C772.236 226.497 773.42 229.374 775.599 231.699C773.779 233.647 772.647 235.987 772.332 238.451C772.017 240.915 772.532 243.404 773.818 245.633C775.105 247.862 777.11 249.742 779.606 251.057C782.102 252.371 784.987 253.069 787.931 253.069C790.875 253.069 793.76 252.371 796.255 251.057C798.751 249.742 800.757 247.862 802.043 245.633C803.329 243.404 803.845 240.915 803.53 238.451C803.215 235.987 802.082 233.647 800.262 231.699C802.365 229.452 772.242 222.053 772.242 223.535Z" fill="black"/>
<path d="M874.106 301.709C870.046 313.886 838.72 325.18 805.407 317.311C772.094 309.442 749.41 285.39 753.47 273.214C757.529 261.037 786.796 265.346 820.109 273.214C853.422 281.083 878.166 289.532 874.106 301.709Z" fill="#3F3D56"/>
<path opacity="0.1" d="M874.106 301.709C870.046 313.886 838.72 325.18 805.407 317.311C772.094 309.442 749.41 285.39 753.47 273.214C757.529 261.037 786.796 265.346 820.109 273.214C853.422 281.083 878.166 289.532 874.106 301.709Z" fill="black"/>
<path d="M874.106 301.709C878.166 289.532 854.452 273.282 821.139 265.413C787.826 257.544 757.529 261.037 753.47 273.214C749.41 285.391 773.124 301.641 806.437 309.51C839.75 317.379 870.046 313.886 874.106 301.709Z" fill="#3F3D56"/>
<path opacity="0.1" d="M803.605 292.695C813.748 292.695 821.971 290.69 821.971 288.217C821.971 285.743 813.748 283.738 803.605 283.738C793.462 283.738 785.24 285.743 785.24 288.217C785.24 290.69 793.462 292.695 803.605 292.695Z" fill="black"/>
<path d="M826.22 262.444L802.991 281.995L793.228 273.778C792.603 273.251 791.754 272.955 790.869 272.955C789.983 272.955 789.135 273.251 788.509 273.778L788.158 273.336C786.855 274.433 787.205 276.653 788.509 277.75L801.176 288.413C801.653 288.814 802.301 289.04 802.976 289.04C803.651 289.04 804.299 288.815 804.776 288.413L830.937 266.416C832.242 265.32 832.715 263.309 831.411 262.212C830.108 261.115 827.523 261.347 826.22 262.444Z" fill="#57B894"/>
<path opacity="0.1" d="M826.22 262.444L802.991 281.995L793.228 273.778C792.603 273.251 791.754 272.955 790.869 272.955C789.983 272.955 789.135 273.251 788.509 273.778L788.158 273.336C786.855 274.433 787.205 276.653 788.509 277.75L801.176 288.413C801.653 288.814 802.301 289.04 802.976 289.04C803.651 289.04 804.299 288.815 804.776 288.413L830.937 266.416C832.242 265.32 832.715 263.309 831.411 262.212C830.108 261.115 827.523 261.347 826.22 262.444Z" fill="black"/>
<path d="M826.22 261.577L802.991 281.129L793.228 272.911C792.603 272.384 791.754 272.088 790.869 272.088C789.983 272.088 789.135 272.384 788.509 272.911V272.911C788.199 273.172 787.953 273.481 787.785 273.822C787.617 274.163 787.531 274.528 787.531 274.897C787.531 275.266 787.617 275.631 787.785 275.972C787.953 276.313 788.199 276.623 788.509 276.883L801.176 287.546C801.653 287.948 802.301 288.173 802.976 288.174C803.651 288.174 804.299 287.948 804.776 287.547L830.937 265.55C831.247 265.289 831.494 264.979 831.661 264.638C831.829 264.298 831.916 263.932 831.916 263.563C831.916 263.194 831.83 262.829 831.662 262.488C831.494 262.147 831.249 261.838 830.939 261.577V261.577C830.313 261.05 829.464 260.754 828.579 260.754C827.694 260.754 826.846 261.05 826.22 261.577Z" fill="#57B894"/>
<path d="M837.531 294.859C837.531 294.859 835.454 295.383 834.415 296.432C834.415 296.432 832.546 297.132 831.403 296.957C830.261 296.782 828.183 298.53 829.845 299.055C831.507 299.58 841.686 300.978 841.894 300.541C842.101 300.104 842.101 295.645 842.101 295.645L837.531 294.859Z" fill="#575A89"/>
<path d="M853.849 294.108C853.849 294.108 851.909 294.923 851.098 296.106C851.098 296.106 849.398 297.064 848.237 297.056C847.076 297.048 845.384 299.07 847.127 299.348C848.871 299.625 859.185 299.54 859.301 299.08C859.416 298.619 858.512 294.226 858.512 294.226L853.849 294.108Z" fill="#575A89"/>
<path d="M840.907 234.841C843.488 234.841 845.581 233.08 845.581 230.907C845.581 228.734 843.488 226.973 840.907 226.973C838.326 226.973 836.233 228.734 836.233 230.907C836.233 233.08 838.326 234.841 840.907 234.841Z" fill="#FFB9B9"/>
<path d="M844.698 231.562C844.698 231.562 845.217 234.535 846.152 234.885C846.803 235.154 847.399 235.508 847.918 235.934L845.321 236.983L840.232 236.721C840.232 236.721 840.647 234.797 839.92 233.836C839.193 232.874 844.698 231.562 844.698 231.562Z" fill="#FFB9B9"/>
<path d="M854.358 245.638C854.358 245.638 856.747 250.796 854.358 255.779C851.969 260.763 850.93 261.549 850.93 261.549L850.203 254.993L851.039 254.354C851.039 254.354 851.545 252.365 851.134 251.187C850.722 250.009 851.346 246.337 851.346 246.337L854.358 245.638Z" fill="#FFB9B9"/>
<path d="M836.493 256.828C836.493 256.828 833.481 262.599 833.792 265.396C834.104 268.194 836.493 279.996 836.493 279.996C836.493 279.996 836.181 295.208 837.116 295.208C838.051 295.208 842.517 296.607 842.517 295.645C842.517 294.684 843.452 271.603 843.452 271.603C843.452 271.603 848.749 281.745 849.268 282.532C849.788 283.318 853.111 295.645 854.254 295.645C855.396 295.645 858.928 294.771 858.616 294.159C858.305 293.547 854.773 279.909 852.8 276.412C850.826 272.915 851.242 259.714 851.242 259.714L847.918 253.594L836.493 256.828Z" fill="#2F2E41"/>
<path d="M839.505 229.115C839.505 229.115 836.596 228.94 836.389 228.328C836.181 227.716 835.766 227.191 835.973 227.191C836.181 227.191 836.285 226.754 836.285 226.754C836.285 226.754 836.493 226.667 836.596 226.754C836.7 226.842 836.804 226.142 836.804 226.142C836.804 226.142 836.908 225.88 837.012 226.055C837.116 226.23 837.116 226.142 837.22 225.88C837.324 225.618 837.843 225.443 837.843 225.443C837.843 225.443 839.816 225.53 840.128 225.18C840.44 224.831 843.971 225.093 844.698 225.53C845.425 225.967 848.645 227.541 848.126 228.852C847.606 230.164 845.737 233.049 845.737 233.486C845.737 233.923 845.01 233.836 844.802 233.398C844.594 232.961 842.932 232.437 842.932 232.174C842.932 231.912 841.998 229.464 841.478 229.639C840.959 229.814 840.336 231.213 840.128 230.951C839.92 230.688 839.505 229.115 839.505 229.115Z" fill="#3F3D56"/>
<path d="M853.838 241.092C853.838 241.092 849.58 235.846 848.333 235.584C847.087 235.322 844.283 234.622 844.283 234.622C844.283 234.622 841.478 234.972 840.647 235.322C839.816 235.672 836.7 236.283 836.597 237.333C836.493 238.382 837.427 248.436 836.908 249.397C836.389 250.359 834.623 259.539 835.454 259.364C836.285 259.189 835.662 256.916 839.297 256.828C842.932 256.741 844.906 254.905 846.256 257.091C847.606 259.276 851.449 260.937 851.449 260.937C851.546 260.233 851.685 259.532 851.865 258.839C852.177 257.615 851.034 254.643 851.034 254.643C851.034 254.643 851.138 247.736 851.553 246.949C851.969 246.163 853.838 241.092 853.838 241.092Z" fill="#575A89"/>
<path d="M852.28 240.917L853.838 241.092C853.838 241.092 853.735 242.84 854.15 243.365C854.565 243.89 855.293 246.6 854.877 246.687C854.462 246.775 850.722 247.299 850.722 247.299L850.515 243.278L852.28 240.917Z" fill="#575A89"/>
<path d="M835.454 244.064C835.454 244.064 834.415 249.747 833.896 250.446C833.377 251.146 830.78 260.937 830.78 260.937C830.78 260.937 826.51 265.936 828.587 265.848C830.665 265.761 832.857 261.287 832.857 261.287C832.857 261.287 839.297 251.408 839.297 250.359C839.297 249.31 840.855 244.064 840.855 244.064H835.454Z" fill="#FFB9B9"/>
<path d="M838.466 236.371L836.596 236.983C836.596 236.983 834.207 244.152 834.727 244.764C835.246 245.376 841.478 244.501 841.582 244.239C841.686 243.977 840.44 236.371 838.466 236.371Z" fill="#575A89"/>
<path d="M754.955 254.792C754.955 260.885 759.496 265.814 765.108 265.814Z" fill="#3F3D56"/>
<path d="M765.108 265.814C765.108 259.654 770.175 254.668 776.437 254.668Z" fill="#6C63FF"/>
<path d="M758.634 255.344C758.634 261.132 761.529 265.814 765.108 265.814Z" fill="#6C63FF"/>
<path d="M765.108 265.814C765.108 257.942 770.965 251.572 778.203 251.572Z" fill="#3F3D56"/>
<path d="M762.972 265.892C762.972 265.892 764.412 265.855 764.846 265.595C765.279 265.335 767.06 265.024 767.168 265.441C767.276 265.858 769.332 267.516 767.706 267.527C766.081 267.538 763.929 267.314 763.496 267.092C763.063 266.869 762.972 265.892 762.972 265.892Z" fill="#A8A8A8"/>
<path opacity="0.2" d="M767.735 267.382C766.11 267.393 763.958 267.168 763.525 266.946C763.195 266.777 763.064 266.17 763.02 265.891C762.989 265.892 762.972 265.892 762.972 265.892C762.972 265.892 763.063 266.87 763.496 267.092C763.929 267.314 766.081 267.538 767.706 267.527C768.175 267.524 768.337 267.383 768.329 267.175C768.263 267.301 768.084 267.379 767.735 267.382Z" fill="black"/>
</g>
<g clip-path="url(#clip2)" filter="url(#filter4_d)">
<g opacity="0.1" filter="url(#filter5_i)">
<path d="M693.361 297.963C692.785 298.762 692.211 299.55 691.638 300.327C690.744 301.534 689.862 302.718 688.992 303.879C688.604 304.393 688.217 304.897 687.84 305.402C683.57 311.014 679.583 315.977 676.197 320.059C673.125 323.758 668.563 326.857 662.989 329.031C657.415 331.206 651.035 332.376 644.517 332.42L569.225 332.947H568.43L561.976 332.992L556.455 333.03L539.525 333.148H538.84L530.221 333.209H529.958L476.834 333.579L429.414 333.899L423.898 333.937L389.641 334.177H389.601L367.383 334.33H367.145L296.892 334.819L275.876 334.966C271.391 334.998 266.925 334.587 262.635 333.745C255.169 332.295 248.459 329.562 243.227 325.84C234.201 319.443 227.623 311.979 223.204 303.879C222.565 302.71 221.97 301.526 221.417 300.327C206.12 267.062 224.768 224.144 258.33 195.424C259.737 194.223 261.167 193.052 262.62 191.911L262.655 191.885C272.977 183.734 284.55 176.925 296.878 172.083C318.723 163.488 342.927 161.067 366.733 168.282C386.875 174.389 405.682 177.26 423.913 178.04C425.755 178.116 427.597 178.174 429.429 178.209C471.248 179.055 510.441 169.362 556.465 163.105C558.297 162.855 560.134 162.61 561.986 162.376C594.818 158.173 631.241 155.956 674.554 160.616C679.054 161.089 683.494 161.773 687.84 162.661C689.75 163.057 691.59 163.483 693.361 163.938C714.034 169.349 725.31 179.346 730.101 191.873C730.554 193.035 730.946 194.218 731.277 195.421C739.772 225.553 714.893 268.295 693.361 297.963Z" fill="#6C63FF"/>
</g>
<g opacity="0.1">
<path opacity="0.1" d="M296.877 172.082V334.853L275.861 335C271.376 335.033 266.91 334.621 262.62 333.78V191.885H262.655C272.977 183.724 284.55 176.915 296.877 172.082Z" fill="#6C63FF"/>
<path opacity="0.1" d="M731.302 195.424H258.33C259.737 194.223 261.167 193.052 262.62 191.91V191.885H730.125C730.579 193.041 730.971 194.221 731.302 195.424Z" fill="#6C63FF"/>
<path opacity="0.1" d="M693.361 163.941V300.323H691.638C690.744 301.53 689.862 302.714 688.991 303.875C688.604 304.389 688.217 304.894 687.84 305.398V162.65C689.749 163.046 691.59 163.477 693.361 163.941Z" fill="#6C63FF"/>
<path opacity="0.1" d="M561.986 162.366V333.004L556.465 333.042V163.094C558.297 162.845 560.134 162.599 561.986 162.366Z" fill="#6C63FF"/>
<path opacity="0.1" d="M429.429 178.199V333.93L423.913 333.968V178.029C425.755 178.106 427.597 178.151 429.429 178.199Z" fill="#6C63FF"/>
<path opacity="0.1" d="M691.638 300.326C690.744 301.534 689.862 302.718 688.992 303.878H223.204C222.565 302.709 221.969 301.525 221.417 300.326H691.638Z" fill="#6C63FF"/>
</g>
<path d="M330.489 242.905H321.056V261.322H330.489V242.905Z" fill="#3F3D56"/>
<path d="M584.357 241.947H574.924V261.43H584.357V241.947Z" fill="#3F3D56"/>
<path d="M644.516 328.446V332.598L569.09 333.045L568.286 333.055L539.619 333.224L538.934 333.231L530.221 333.278H529.962L476.848 333.595L389.661 334.115H389.586L367.418 334.249L367.18 334.253L268.677 334.834V330.043L291.838 321.1L338.309 320.851L339.302 320.848L339.63 320.844L340.623 320.835L362.935 320.717L363.933 320.713L364.251 320.71L365.244 320.707L372.398 320.669L372.587 320.665L390.237 320.57H390.381L528.106 319.822L531.477 319.806H531.814L534.386 319.79L553.079 319.691L554.072 319.682L554.99 319.675H555.467L561.281 319.647L562.433 319.637L563.977 319.631L568.817 319.602L576.498 319.56L577.491 319.554L579.219 319.548H579.541L616.634 319.343L644.516 328.446Z" fill="#65617D"/>
<path opacity="0.2" d="M644.516 328.446V332.598L569.09 333.045L568.286 333.055L539.619 333.224L538.934 333.231L530.221 333.278H529.962L476.848 333.595L389.661 334.115H389.586L367.418 334.249L367.18 334.253L268.677 334.834V330.043L291.838 321.1L338.309 320.851L339.302 320.848L339.63 320.844L340.623 320.835L362.935 320.717L363.933 320.713L364.251 320.71L365.244 320.707L372.398 320.669L372.587 320.665L390.237 320.57H390.381L528.106 319.822L531.477 319.806H531.814L534.386 319.79L553.079 319.691L554.072 319.682L554.99 319.675H555.467L561.281 319.647L562.433 319.637L563.977 319.631L568.817 319.602L576.498 319.56L577.491 319.554L579.219 319.548H579.541L616.634 319.343L644.516 328.446Z" fill="black"/>
<path d="M363.009 312.479V320.301C363.01 320.672 362.846 321.035 362.539 321.348C362.231 321.661 361.792 321.912 361.272 322.071C360.884 322.192 360.461 322.257 360.03 322.262L342.703 322.499C342.24 322.506 341.781 322.444 341.363 322.317C340.833 322.161 340.385 321.91 340.07 321.595C339.756 321.279 339.589 320.912 339.59 320.538V312.479H363.009Z" fill="#3F3D56"/>
<path opacity="0.1" d="M363.009 312.479V320.301C363.01 320.672 362.846 321.035 362.539 321.348C362.231 321.661 361.792 321.912 361.272 322.071C360.884 322.192 360.461 322.257 360.03 322.262L342.703 322.499C342.24 322.506 341.781 322.444 341.363 322.317C340.833 322.161 340.385 321.91 340.07 321.595C339.756 321.279 339.589 320.912 339.59 320.538V312.479H363.009Z" fill="black"/>
<path d="M364.002 312.479V320.301C364.002 320.672 363.839 321.035 363.532 321.348C363.224 321.661 362.785 321.912 362.265 322.071C361.877 322.192 361.454 322.257 361.023 322.262L343.696 322.499C343.233 322.506 342.774 322.444 342.355 322.317C341.826 322.161 341.378 321.91 341.063 321.595C340.749 321.279 340.582 320.912 340.583 320.538V312.479H364.002Z" fill="#3F3D56"/>
<path d="M577.491 312.479H554.072V322.54H577.491V312.479Z" fill="#3F3D56"/>
<path opacity="0.1" d="M577.491 312.479H554.072V322.54H577.491V312.479Z" fill="black"/>
<path d="M576.498 312.479H553.079V322.54H576.498V312.479Z" fill="#3F3D56"/>
<path opacity="0.1" d="M330.489 242.902V244.732L321.056 244.576V242.902H330.489Z" fill="black"/>
<path d="M392.58 191.345L381.245 243.726C381.173 244.061 380.912 244.366 380.512 244.585C380.112 244.804 379.6 244.92 379.076 244.911L288.318 243.397L286.595 243.368C286.295 243.364 286 243.319 285.729 243.236C285.458 243.153 285.217 243.034 285.023 242.887C284.828 242.741 284.683 242.569 284.598 242.384C284.513 242.199 284.49 242.004 284.53 241.813L297.255 186.979C297.337 186.639 297.614 186.332 298.031 186.117C298.449 185.902 298.976 185.796 299.509 185.819L390.594 189.786C390.888 189.797 391.175 189.847 391.437 189.933C391.7 190.019 391.931 190.139 392.118 190.286C392.305 190.432 392.442 190.602 392.522 190.784C392.601 190.967 392.621 191.157 392.58 191.345V191.345Z" fill="#65617D"/>
<path d="M303.347 189.671L293.75 238.006L377.159 239.708L387.417 193.076L303.347 189.671Z" fill="#6C63FF"/>
<path d="M505.918 188.924H409.595C408.133 188.924 406.948 189.686 406.948 190.626V242.583C406.948 243.523 408.133 244.285 409.595 244.285H505.918C507.379 244.285 508.564 243.523 508.564 242.583V190.626C508.564 189.686 507.379 188.924 505.918 188.924Z" fill="#65617D"/>
<path d="M504.09 192.651H411.744V238.75H504.09V192.651Z" fill="#6C63FF"/>
<path opacity="0.1" d="M584.357 241.944V243.154L574.924 243.279V241.944H584.357Z" fill="black"/>
<path d="M626.921 240.922C626.934 241.054 626.906 241.187 626.838 241.312C626.77 241.437 626.663 241.552 626.523 241.65C626.384 241.748 626.216 241.826 626.028 241.881C625.841 241.936 625.638 241.966 625.432 241.969L532.489 243.205C532.103 243.211 531.729 243.122 531.44 242.956C531.152 242.791 530.972 242.562 530.935 242.314L522.947 188.886C522.927 188.753 522.95 188.619 523.013 188.492C523.076 188.366 523.178 188.248 523.314 188.148C523.449 188.047 523.615 187.965 523.801 187.907C523.987 187.849 524.19 187.816 524.397 187.809L616.634 184.858L617.627 184.826C618.022 184.813 618.409 184.899 618.707 185.065C619.005 185.232 619.191 185.467 619.225 185.72L626.921 240.922Z" fill="#65617D"/>
<path d="M528.254 190.949L612.493 188.285L619.608 236.833L536.034 238.111L528.254 190.949Z" fill="#6C63FF"/>
<path opacity="0.1" d="M626.921 240.922C626.934 241.054 626.906 241.187 626.838 241.312C626.769 241.437 626.663 241.552 626.523 241.65C626.384 241.748 626.216 241.826 626.028 241.881C625.841 241.936 625.638 241.966 625.432 241.969L616.634 184.858L617.627 184.826C618.021 184.813 618.409 184.899 618.707 185.065C619.005 185.232 619.191 185.467 619.225 185.72L626.921 240.922Z" fill="black"/>
<path opacity="0.1" d="M299.524 185.816L288.318 243.397L286.595 243.368C286.295 243.364 286 243.319 285.729 243.236C285.458 243.153 285.217 243.034 285.023 242.887C284.828 242.741 284.683 242.569 284.598 242.384C284.513 242.199 284.49 242.004 284.53 241.813L297.255 186.979C297.336 186.637 297.615 186.327 298.035 186.112C298.456 185.896 298.987 185.791 299.524 185.816V185.816Z" fill="black"/>
<path opacity="0.1" d="M330.489 255.866H321.056V261.322H330.489V255.866Z" fill="black"/>
<path opacity="0.1" d="M364.002 312.476V314.064L340.583 314.466V312.476H364.002Z" fill="black"/>
<path d="M405.335 257.767V311.489C405.329 311.817 405.127 312.131 404.771 312.366C404.415 312.601 403.933 312.739 403.423 312.751L308.272 314.38H308.247C307.729 314.376 307.234 314.241 306.867 314.006C306.501 313.77 306.292 313.451 306.286 313.118V257.767C306.292 257.433 306.501 257.115 306.867 256.879C307.234 256.643 307.729 256.509 308.247 256.505H403.374C403.892 256.509 404.387 256.643 404.753 256.879C405.12 257.115 405.328 257.433 405.335 257.767V257.767Z" fill="#65617D"/>
<path opacity="0.1" d="M308.272 256.505V314.38H308.247C307.729 314.376 307.234 314.241 306.867 314.006C306.501 313.77 306.292 313.451 306.286 313.118V257.767C306.292 257.433 306.501 257.115 306.867 256.879C307.234 256.643 307.729 256.509 308.247 256.505H308.272Z" fill="black"/>
<path d="M312.616 259.935H400.742V307.286L312.616 308.564V259.935Z" fill="#D4DFEC"/>
<path opacity="0.1" d="M584.357 255.866H574.924V261.43H584.357V255.866Z" fill="black"/>
<path opacity="0.1" d="M576.498 312.476V314.524L553.079 314.121V312.476H576.498Z" fill="black"/>
<path d="M607.404 257.767V313.118C607.398 313.454 607.185 313.775 606.814 314.011C606.442 314.247 605.941 314.38 605.418 314.38V314.38L510.247 312.751C509.737 312.739 509.255 312.601 508.899 312.366C508.543 312.131 508.341 311.817 508.335 311.489V257.767C508.342 257.433 508.551 257.115 508.917 256.879C509.283 256.643 509.778 256.509 510.297 256.505H605.423C605.945 256.506 606.445 256.639 606.816 256.875C607.186 257.111 607.398 257.431 607.404 257.767V257.767Z" fill="#65617D"/>
<path opacity="0.1" d="M607.404 257.767V313.118C607.398 313.454 607.186 313.775 606.814 314.011C606.442 314.247 605.941 314.38 605.418 314.38V314.38V256.505C605.941 256.505 606.442 256.637 606.814 256.874C607.186 257.11 607.398 257.431 607.404 257.767Z" fill="black"/>
<path d="M601.074 259.935H512.948V307.286L601.074 308.564V259.935Z" fill="#D4DFEC"/>
<path d="M505.873 257.767V311.489C505.867 311.817 505.665 312.131 505.309 312.366C504.953 312.601 504.471 312.739 503.961 312.751L408.81 314.38C408.288 314.38 407.786 314.247 407.414 314.011C407.043 313.775 406.831 313.454 406.824 313.118V257.767C406.831 257.433 407.039 257.115 407.406 256.879C407.772 256.643 408.267 256.509 408.785 256.505H503.912C504.43 256.509 504.925 256.643 505.291 256.879C505.658 257.115 505.866 257.433 505.873 257.767V257.767Z" fill="#65617D"/>
<path d="M413.154 259.935H501.28V307.286L413.154 308.564V259.935Z" fill="#D4DFEC"/>
<path opacity="0.1" d="M644.516 328.446V332.598L569.09 333.045L568.286 333.055L539.619 333.224L538.934 333.231L530.221 333.278H529.962L476.848 333.595L389.661 334.115H389.586L367.418 334.249L367.18 334.253L268.677 334.834V330.043L369.22 329.618H369.459L389.81 329.529H389.904L530.449 328.931H530.593L530.677 328.928H530.911L533.289 328.919H534.014L570.997 328.759L573.181 328.753L573.668 328.749L644.516 328.446Z" fill="black"/>
<path d="M457.917 261.322C471.992 261.322 483.402 253.981 483.402 244.927C483.402 235.872 471.992 228.532 457.917 228.532C443.843 228.532 432.433 235.872 432.433 244.927C432.433 253.981 443.843 261.322 457.917 261.322Z" fill="#FBBEBE"/>
<path d="M483.407 278.464C483.407 278.464 434.007 282.296 438.723 278.464C440.431 277.077 440.903 272.97 440.809 268.291C440.779 266.87 440.699 265.397 440.585 263.931C440.039 256.904 438.723 250.037 438.723 250.037C438.723 250.037 481.918 236.942 476.953 247.322C474.967 251.516 475.617 257.406 477.126 262.935C477.568 264.548 478.08 266.129 478.616 267.63C479.924 271.291 481.524 274.907 483.407 278.464V278.464Z" fill="#FBBEBE"/>
<path opacity="0.1" d="M483.407 278.464C483.407 278.464 434.007 282.296 438.723 278.464C440.431 277.077 440.903 272.97 440.809 268.291C448.34 266.221 457.922 267.764 457.922 267.764C468.011 266.47 474.48 266.723 478.616 267.63C479.924 271.291 481.524 274.907 483.407 278.464V278.464Z" fill="black"/>
<path d="M389.641 334.476V334.208L476.834 333.598L529.957 333.278H530.106L530.052 333.751L530.126 333.278H530.221V333.224L530.901 328.928L531.159 327.303L531.238 326.795L531.308 326.37L534.376 319.787L537.444 313.214L540.026 307.679L543.968 299.221C543.968 299.221 541.734 295.868 540.493 294.909C539.252 293.951 538.01 287.404 538.01 287.404C538.01 287.404 527.415 280.91 522.783 280.163C520.842 279.843 517.009 279.419 512.938 278.885C511.414 278.687 509.85 278.476 508.345 278.246C507.496 278.122 506.662 277.991 505.863 277.86C504.307 277.61 502.774 277.305 501.27 276.947C500.482 276.762 499.732 276.517 499.036 276.215C495.387 274.494 486.242 274.299 485.889 274.299C485.888 274.291 485.888 274.284 485.889 274.276V274.248C485.902 274.114 485.902 273.979 485.889 273.845C485.889 273.717 485.889 273.567 485.845 273.398C485.845 273.347 485.845 273.293 485.81 273.238C485.785 273.123 485.755 273.002 485.711 272.874C485.696 272.817 485.676 272.761 485.651 272.705C485.507 272.32 485.299 271.946 485.03 271.59C484.996 271.539 484.951 271.485 484.911 271.434C484.668 271.139 484.386 270.858 484.067 270.594C484.003 270.539 483.933 270.482 483.859 270.428C483.452 270.119 483 269.837 482.508 269.584C482.374 269.517 482.235 269.447 482.091 269.383C482.011 269.341 481.926 269.303 481.838 269.268L481.396 269.083L480.984 268.93C480.622 268.802 480.239 268.677 479.822 268.559C479.693 268.521 479.554 268.486 479.415 268.451C479.276 268.415 479.058 268.361 478.874 268.316H478.844L478.472 268.221C478.189 268.16 477.901 268.106 477.598 268.051L477.136 267.975L476.64 267.901L476.143 267.834C475.647 267.77 475.116 267.713 474.56 267.668L473.994 267.623L473.413 267.585L472.812 267.553L471.958 267.521L470.965 267.499C466.586 267.498 462.219 267.797 457.937 268.39C454.963 267.964 451.917 267.784 448.871 267.853H448.44L447.943 267.872H447.625L446.985 267.911C446.771 267.911 446.553 267.94 446.339 267.959C446.126 267.978 445.902 267.994 445.689 268.016L445.361 268.051C445.039 268.086 444.711 268.125 444.368 268.17C444.259 268.182 444.15 268.198 444.041 268.217C443.609 268.278 443.177 268.352 442.75 268.435C442.536 268.473 442.323 268.518 442.109 268.566C442 268.585 441.896 268.61 441.792 268.636L441.474 268.709L441.161 268.789L440.789 268.885C440.6 268.936 440.416 268.99 440.233 269.048C440.128 269.077 440.024 269.109 439.925 269.144C439.825 269.179 439.721 269.208 439.627 269.243C438.504 269.616 437.467 270.087 436.544 270.642L436.291 270.798L436.042 270.961C435.958 271.015 435.878 271.073 435.799 271.13C435.475 271.358 435.174 271.598 434.895 271.849C434.816 271.916 434.741 271.983 434.667 272.053C434.352 272.352 434.067 272.664 433.813 272.986C433.749 273.063 433.689 273.143 433.629 273.219C433.224 273.759 432.892 274.32 432.636 274.896C432.544 275.109 432.459 275.322 432.383 275.535C432.383 275.535 421.873 278.518 413.154 280.677C410.836 281.252 408.651 281.773 406.824 282.165C406.293 282.28 405.796 282.386 405.335 282.485C404.333 282.718 403.291 282.872 402.232 282.945C401.732 282.95 401.234 282.98 400.742 283.034C396.736 283.453 389.869 285.27 389.119 287.094C389.059 287.239 389.042 287.391 389.07 287.541C389.07 287.541 389.07 287.563 389.07 287.576C389.566 289.812 386.091 289.492 386.091 289.492C386.091 289.492 384.85 295.401 383.112 296.998C381.856 298.148 380.997 300.713 380.888 302.648C380.825 303.251 380.899 303.857 381.106 304.447C381.106 304.463 381.106 304.478 381.106 304.491C381.305 304.919 380.828 306.088 380.019 307.586C379.14 309.231 377.859 311.275 376.628 313.204C374.771 316.117 373.023 318.762 372.914 319.343C372.87 319.602 372.74 320.065 372.562 320.662C371.837 323.096 370.228 327.731 369.434 329.605C368.843 331.004 367.984 332.921 367.393 334.237C367.393 334.275 367.359 334.313 367.344 334.348L389.601 334.208V334.476H389.671H389.641Z" fill="#6C63FF"/>
<path opacity="0.1" d="M397.763 296.829C397.763 296.829 426.063 306.251 436.241 305.133L397.763 296.829Z" fill="black"/>
<path opacity="0.1" d="M455.356 292.996C455.356 292.996 482.91 298.745 492.095 299.544C501.28 300.342 455.356 292.996 455.356 292.996Z" fill="black"/>
<path opacity="0.1" d="M485.919 274.497C471.521 276.202 444.413 275.835 432.696 275.576C436.991 265.675 457.932 269.041 457.932 269.041C483.854 265.713 485.84 272.619 485.919 274.497Z" fill="black"/>
<path d="M485.919 273.858C471.521 275.564 444.413 275.196 432.696 274.937C436.991 265.036 457.932 268.403 457.932 268.403C483.854 265.075 485.84 271.98 485.919 273.858Z" fill="#6C63FF"/>
<path d="M562.348 317.51C562.348 317.51 579.308 315.833 579.641 320.624C579.973 325.415 570.992 328.762 570.992 328.762L562.348 317.51Z" fill="#FBBEBE"/>
<path opacity="0.1" d="M477.126 262.935C476.397 263.144 475.651 263.33 474.892 263.49C469.54 264.678 464.143 265.876 458.508 266.311C452.873 266.745 446.96 266.362 442.045 264.554C441.529 264.366 441.031 264.158 440.555 263.931C440.009 256.904 438.693 250.037 438.693 250.037C438.693 250.037 481.888 236.942 476.923 247.322C474.947 251.516 475.617 257.406 477.126 262.935Z" fill="black"/>
<path d="M450.927 219.302C450.218 219.422 449.476 219.434 448.759 219.337C448.041 219.24 447.369 219.037 446.796 218.743L447.829 219.666C447.22 219.711 446.604 219.67 446.022 219.546C445.441 219.422 444.909 219.218 444.463 218.947C444.369 219.774 444.422 220.604 444.622 221.423C442.913 221.476 441.23 221.136 439.875 220.464C439.849 220.753 439.96 221.039 440.194 221.285C440.429 221.531 440.775 221.725 441.186 221.841C439.469 221.709 437.737 221.983 436.312 222.613C434.887 223.242 433.866 224.184 433.441 225.262L436.032 225.415C433.996 225.695 432.168 226.412 430.849 227.45C430.055 228.088 429.449 228.906 429.796 229.685C430.144 230.465 431.822 230.963 432.736 230.407C431.436 231.405 430.492 232.574 429.969 233.831C429.445 235.088 429.356 236.404 429.707 237.686C429.943 238.233 430.02 238.802 429.935 239.366C429.772 239.893 429.255 240.35 428.997 240.864C428.501 241.797 428.972 242.809 429.414 243.739L431.743 248.664C432.587 250.443 433.426 252.225 434.528 253.947C435.308 255.035 435.972 256.157 436.514 257.304C437.139 258.849 437.164 260.542 438.5 261.893C439.415 262.744 440.639 263.437 442.065 263.915C446.975 265.723 452.908 266.106 458.528 265.672C464.148 265.237 469.54 264.04 474.887 262.852C476.075 262.621 477.215 262.3 478.283 261.893C481.982 260.335 482.806 257.147 483.496 254.34C484.266 251.209 485.294 248.086 487.116 245.141C488.198 243.387 489.598 241.608 489.36 239.73C489.057 237.236 485.989 235.214 485.229 232.761C484.975 231.941 484.987 231.096 485.264 230.279C485.499 229.793 485.631 229.288 485.656 228.778C485.572 227.75 484.261 226.958 483.03 226.297C480.359 224.861 477.601 223.505 474.758 222.227C474.614 221.589 475.965 221.314 476.575 220.809C477.439 220.097 476.546 218.966 475.235 218.634C473.924 218.302 472.455 218.519 471.089 218.74C471.178 218.29 471.039 217.834 470.693 217.439C470.347 217.045 469.812 216.732 469.167 216.549C468.523 216.366 467.804 216.321 467.117 216.422C466.43 216.522 465.812 216.763 465.355 217.108C464.992 216.573 464.413 216.11 463.678 215.769C462.942 215.427 462.078 215.219 461.174 215.166C457.883 215 457.818 216.619 455.713 217.51C453.608 218.401 451.87 217.226 450.252 216.37C449.954 216.854 449.86 217.379 449.979 217.894C450.097 218.409 450.424 218.894 450.927 219.302V219.302Z" fill="#3F3D56"/>
<path d="M574.924 327.092C574.924 327.092 574.482 327.769 573.668 328.749C572.436 330.258 570.937 331.67 569.2 332.956L569.066 333.048H568.261L539.594 333.218H538.909L538.825 333.154L533.264 328.909L531.169 327.309L531.084 327.242L530.906 327.108L530.806 327.031L530.677 326.932L526.601 323.821L528.091 319.829L530.628 313.102L530.692 312.939L531.189 311.662L531.541 310.704L532.723 307.58L536.774 296.832L543.973 299.228L551.564 307.851L555.641 312.483H557.875C558.297 312.483 559.265 313.006 560.238 313.61C560.586 313.824 560.933 314.051 561.231 314.249C562.115 314.836 562.815 315.341 562.815 315.341C562.815 315.341 566.434 315.392 567.407 317.226C567.458 317.314 567.499 317.405 567.531 317.497C567.854 318.218 568.275 318.919 568.788 319.592C569.428 320.49 570.232 321.509 571.047 322.528C572.561 324.396 574.1 326.175 574.666 326.82L574.735 326.9L574.924 327.092Z" fill="#6C63FF"/>
<path opacity="0.1" d="M532.276 312.671L532.226 313.128V313.16L532.142 313.894L531.482 319.806L530.682 326.929L530.454 328.935L529.957 333.227V333.282L476.834 333.601L389.656 334.208V334.476H389.586V334.208V334.118L389.81 329.532L390.237 320.57L390.604 312.971L390.639 312.214C390.66 311.757 390.827 311.308 391.127 310.894C391.428 310.48 391.857 310.109 392.387 309.805C392.918 309.501 393.539 309.27 394.214 309.126C394.888 308.982 395.601 308.927 396.309 308.966C398.652 309.094 401.695 309.25 405.335 309.416L406.824 309.487C427.84 310.426 466.68 311.639 505.873 310.125C506.697 310.097 507.526 310.065 508.355 310.026C514.432 309.78 520.504 309.464 526.517 309.068C527.277 309.017 528.045 309.074 528.768 309.234C529.49 309.394 530.149 309.655 530.698 309.997C531.247 310.339 531.673 310.754 531.946 311.213C532.218 311.672 532.331 312.165 532.276 312.655V312.671Z" fill="black"/>
<path d="M389.641 334.476V334.208L476.833 333.598L529.957 333.278H530.106V333.224L530.603 328.931L530.816 327.015L531.631 319.794L532.271 314.076V313.936C532.301 313.672 532.282 313.408 532.216 313.147C532.219 313.136 532.219 313.126 532.216 313.115C532.08 312.576 531.739 312.067 531.223 311.633C530.677 311.182 529.96 310.828 529.142 310.604C528.324 310.381 527.431 310.295 526.547 310.355C520.534 310.751 514.462 311.068 508.385 311.314C507.556 311.352 506.727 311.384 505.903 311.413C466.71 312.911 427.87 311.697 406.854 310.774L405.364 310.704C401.725 310.537 398.682 310.384 396.338 310.253C395.049 310.183 393.765 310.423 392.735 310.926C391.704 311.429 391 312.16 390.758 312.978C390.708 313.151 390.678 313.326 390.668 313.501L390.331 320.579L389.869 329.545L389.651 334.131V334.221V334.489L389.641 334.476Z" fill="#3F3D56"/>
<path opacity="0.1" d="M532.425 314.91L531.814 319.806L530.906 327.104L530.677 328.931L530.181 333.023L530.151 333.227V333.282L530.077 333.754L530.131 333.282H529.987L476.863 333.601L389.656 334.208V334.118L389.899 329.532L390.395 320.57L390.713 314.613C390.729 314.274 390.876 313.943 391.141 313.65C391.407 313.357 391.782 313.112 392.232 312.936C392.795 312.714 393.452 312.614 394.109 312.649C395.152 312.703 396.433 312.767 397.927 312.837C400.355 312.952 403.349 313.086 406.834 313.227C413.288 313.489 421.386 313.77 430.665 314C456.483 314.638 491.336 314.852 524.441 312.987C525.931 312.904 527.47 312.812 528.974 312.719C529.57 312.681 530.17 312.754 530.702 312.93C530.853 312.978 530.996 313.036 531.129 313.102C531.561 313.304 531.904 313.575 532.122 313.888C532.173 313.95 532.214 314.015 532.246 314.083C532.395 314.347 532.456 314.629 532.425 314.91V314.91Z" fill="black"/>
<path opacity="0.1" d="M364.002 319.282V320.301C364.002 320.672 363.839 321.035 363.532 321.348C363.224 321.661 362.785 321.912 362.265 322.071L342.355 322.317C341.826 322.161 341.378 321.91 341.063 321.595C340.749 321.279 340.582 320.912 340.583 320.538V319.58L364.002 319.282Z" fill="black"/>
<path d="M364.251 322.671L338.309 322.991V320.222L364.251 319.902V322.671Z" fill="#3F3D56"/>
<path opacity="0.1" d="M364.251 322.671L338.309 322.991V320.222L364.251 319.902V322.671Z" fill="black"/>
<path d="M365.243 322.671L339.302 322.991V320.222L365.243 319.902V322.671Z" fill="#3F3D56"/>
<g opacity="0.1">
<path opacity="0.1" d="M451.13 218.254C450.645 217.849 450.323 217.373 450.192 216.868C450.072 217.361 450.144 217.866 450.401 218.337C450.647 218.323 450.891 218.295 451.13 218.254Z" fill="black"/>
<path opacity="0.1" d="M444.824 220.375C444.731 219.983 444.67 219.589 444.641 219.193C444.641 219.586 444.641 219.982 444.641 220.378L444.824 220.375Z" fill="black"/>
<path opacity="0.1" d="M485.289 231.033C485.316 230.749 485.376 230.466 485.467 230.187C485.702 229.701 485.836 229.197 485.865 228.689C485.853 228.575 485.827 228.461 485.785 228.35C485.701 228.644 485.567 228.938 485.467 229.229C485.269 229.821 485.209 230.429 485.289 231.033Z" fill="black"/>
<path opacity="0.1" d="M474.962 221.164L475.503 221.416C475.959 221.204 476.386 220.967 476.779 220.707C476.966 220.541 477.081 220.346 477.115 220.142C477.148 219.938 477.097 219.732 476.968 219.545C476.918 219.617 476.855 219.686 476.779 219.749C476.168 220.254 474.818 220.531 474.962 221.164Z" fill="black"/>
<path opacity="0.1" d="M434.166 224.236C433.984 224.469 433.84 224.713 433.734 224.965C434.51 224.686 435.347 224.482 436.216 224.361L434.166 224.236Z" fill="black"/>
<path opacity="0.1" d="M441.012 220.761C440.686 220.646 440.374 220.515 440.079 220.369C440.066 220.495 440.081 220.622 440.123 220.745C440.42 220.736 440.717 220.742 441.012 220.761V220.761Z" fill="black"/>
<path opacity="0.1" d="M489.553 239.58C489.35 241.129 488.228 242.621 487.319 244.09C485.497 247.035 484.469 250.159 483.7 253.292C483.01 256.099 482.21 259.287 478.487 260.842C477.423 261.251 476.284 261.573 475.096 261.801C469.744 262.992 464.347 264.187 458.712 264.621C453.077 265.055 447.164 264.675 442.248 262.867C440.823 262.389 439.6 261.695 438.684 260.846C437.358 259.495 437.333 257.802 436.698 256.256C436.156 255.108 435.492 253.985 434.712 252.896C433.614 251.178 432.77 249.383 431.931 247.616C431.154 245.975 430.377 244.332 429.603 242.688C429.348 242.194 429.158 241.686 429.037 241.171C428.843 241.989 429.221 242.844 429.603 243.646C430.377 245.292 431.154 246.935 431.931 248.574C432.77 250.354 433.614 252.136 434.712 253.854C435.492 254.944 436.156 256.066 436.698 257.214C437.323 258.76 437.348 260.453 438.684 261.804C439.6 262.653 440.823 263.347 442.248 263.826C447.164 265.633 453.092 266.014 458.712 265.579C464.332 265.145 469.724 263.95 475.096 262.759C476.284 262.531 477.423 262.21 478.487 261.801C482.186 260.245 483.01 257.058 483.7 254.25C484.469 251.117 485.497 247.993 487.319 245.048C488.402 243.298 489.802 241.519 489.563 239.638C489.563 239.619 489.553 239.599 489.553 239.58Z" fill="black"/>
<path opacity="0.1" d="M430.129 238.344C430.129 238.344 430.129 238.322 430.129 238.309C430.219 237.746 430.141 237.177 429.901 236.632C429.802 236.282 429.737 235.928 429.707 235.572C429.65 236.247 429.715 236.925 429.901 237.59C429.98 237.84 430.07 238.092 430.129 238.344Z" fill="black"/>
<path opacity="0.1" d="M431.643 230.532C432.025 230.119 432.459 229.727 432.939 229.36C432.031 229.919 430.353 229.42 430 228.644C429.87 228.958 429.87 229.288 430 229.602C430.122 229.837 430.339 230.046 430.627 230.209C430.916 230.373 431.266 230.484 431.643 230.532V230.532Z" fill="black"/>
</g>
<path opacity="0.1" d="M555.646 312.479C555.646 312.479 557.219 316.152 555.646 319.346C554.072 322.54 555.646 312.479 555.646 312.479Z" fill="black"/>
<path opacity="0.1" d="M562.348 316.226C562.348 316.226 563.008 320.889 561.519 321.716C560.03 322.544 562.348 316.226 562.348 316.226Z" fill="black"/>
<path d="M314.796 267.508L365.244 267.189" stroke="#6C63FF" stroke-width="2" stroke-miterlimit="10"/>
<path d="M314.796 271.491L365.244 271.175" stroke="#6C63FF" stroke-width="2" stroke-miterlimit="10"/>
<path d="M314.796 275.477L365.244 275.158" stroke="#6C63FF" stroke-width="2" stroke-miterlimit="10"/>
</g>
<defs>
<filter id="filter0_d" x="64.7578" y="9" width="461.096" height="118.562" filterUnits="userSpaceOnUse" color-interpolation-filters="sRGB">
<feFlood flood-opacity="0" result="BackgroundImageFix"/>
<feColorMatrix in="SourceAlpha" type="matrix" values="0 0 0 0 0 0 0 0 0 0 0 0 0 0 0 0 0 0 127 0"/>
<feOffset dy="4"/>
<feGaussianBlur stdDeviation="2"/>
<feColorMatrix type="matrix" values="0 0 0 0 0 0 0 0 0 0 0 0 0 0 0 0 0 0 0.25 0"/>
<feBlend mode="normal" in2="BackgroundImageFix" result="effect1_dropShadow"/>
<feBlend mode="normal" in="SourceGraphic" in2="effect1_dropShadow" result="shape"/>
</filter>
<filter id="filter1_d" x="593" y="19" width="217" height="98" filterUnits="userSpaceOnUse" color-interpolation-filters="sRGB">
<feFlood flood-opacity="0" result="BackgroundImageFix"/>
<feColorMatrix in="SourceAlpha" type="matrix" values="0 0 0 0 0 0 0 0 0 0 0 0 0 0 0 0 0 0 127 0"/>
<feOffset dy="4"/>
<feGaussianBlur stdDeviation="2"/>
<feColorMatrix type="matrix" values="0 0 0 0 0 0 0 0 0 0 0 0 0 0 0 0 0 0 0.25 0"/>
<feBlend mode="normal" in2="BackgroundImageFix" result="effect1_dropShadow"/>
<feBlend mode="normal" in="SourceGraphic" in2="effect1_dropShadow" result="shape"/>
</filter>
<filter id="filter2_d" x="0" y="209" width="220" height="119" filterUnits="userSpaceOnUse" color-interpolation-filters="sRGB">
<feFlood flood-opacity="0" result="BackgroundImageFix"/>
<feColorMatrix in="SourceAlpha" type="matrix" values="0 0 0 0 0 0 0 0 0 0 0 0 0 0 0 0 0 0 127 0"/>
<feOffset dy="4"/>
<feGaussianBlur stdDeviation="2"/>
<feColorMatrix type="matrix" values="0 0 0 0 0 0 0 0 0 0 0 0 0 0 0 0 0 0 0.25 0"/>
<feBlend mode="normal" in2="BackgroundImageFix" result="effect1_dropShadow"/>
<feBlend mode="normal" in="SourceGraphic" in2="effect1_dropShadow" result="shape"/>
</filter>
<filter id="filter3_d" x="749" y="194" width="147" height="134" filterUnits="userSpaceOnUse" color-interpolation-filters="sRGB">
<feFlood flood-opacity="0" result="BackgroundImageFix"/>
<feColorMatrix in="SourceAlpha" type="matrix" values="0 0 0 0 0 0 0 0 0 0 0 0 0 0 0 0 0 0 127 0"/>
<feOffset dy="4"/>
<feGaussianBlur stdDeviation="2"/>
<feColorMatrix type="matrix" values="0 0 0 0 0 0 0 0 0 0 0 0 0 0 0 0 0 0 0.25 0"/>
<feBlend mode="normal" in2="BackgroundImageFix" result="effect1_dropShadow"/>
<feBlend mode="normal" in="SourceGraphic" in2="effect1_dropShadow" result="shape"/>
</filter>
<filter id="filter4_d" x="212" y="158" width="525" height="185" filterUnits="userSpaceOnUse" color-interpolation-filters="sRGB">
<feFlood flood-opacity="0" result="BackgroundImageFix"/>
<feColorMatrix in="SourceAlpha" type="matrix" values="0 0 0 0 0 0 0 0 0 0 0 0 0 0 0 0 0 0 127 0"/>
<feOffset dy="4"/>
<feGaussianBlur stdDeviation="2"/>
<feColorMatrix type="matrix" values="0 0 0 0 0 0 0 0 0 0 0 0 0 0 0 0 0 0 0.25 0"/>
<feBlend mode="normal" in2="BackgroundImageFix" result="effect1_dropShadow"/>
<feBlend mode="normal" in="SourceGraphic" in2="effect1_dropShadow" result="shape"/>
</filter>
<filter id="filter5_i" x="216.005" y="158.012" width="516.979" height="180.956" filterUnits="userSpaceOnUse" color-interpolation-filters="sRGB">
<feFlood flood-opacity="0" result="BackgroundImageFix"/>
<feBlend mode="normal" in="SourceGraphic" in2="BackgroundImageFix" result="shape"/>
<feColorMatrix in="SourceAlpha" type="matrix" values="0 0 0 0 0 0 0 0 0 0 0 0 0 0 0 0 0 0 127 0" result="hardAlpha"/>
<feOffset dy="4"/>
<feGaussianBlur stdDeviation="2"/>
<feComposite in2="hardAlpha" operator="arithmetic" k2="-1" k3="1"/>
<feColorMatrix type="matrix" values="0 0 0 0 0 0 0 0 0 0 0 0 0 0 0 0 0 0 0.25 0"/>
<feBlend mode="normal" in2="shape" result="effect1_innerShadow"/>
</filter>
<clipPath id="clip0">
<rect width="209" height="90" fill="white" transform="translate(597 19)"/>
</clipPath>
<clipPath id="clip1">
<rect width="139" height="126" fill="white" transform="translate(753 194)"/>
</clipPath>
<clipPath id="clip2">
<rect width="517" height="177" fill="white" transform="translate(216 158)"/>
</clipPath>
</defs>
</svg>
